<svg width="100%" height="100%" viewBox="0 0 1536 1024" fill="none" xmlns="http://www.w3.org/2000/svg"><mask id="b" style="mask-type:alpha" maskUnits="userSpaceOnUse" x="0" y="0" width="1536" height="1024"><path fill="#d9d9d9" d="M0 0h1536v1024H0z"/></mask><g filter="url(#a)" mask="url(#b)"><g clip-path="url(#d)"><path d="M0 0h1536v1024H0z" fill="#f8be29"/><path d="m1365.04 597.779 3.83-1.168c2 1.922 3.3 3.283 5.66 4.822l5.57 4.365c-1.27.912-2.5 1.936-3.96 2.473l-4.7-3.886c-2.28-1.918-4.38-4.38-6.4-6.606" fill="#6a4c16"/><path d="M1134.65 0H1536v12.81c-17.75 20.986-32.73 29.645-58.18 40.521-11.36 4.857-20.84 8.79-30.98 15.946-10.17 7.177-20.58 20.079-21.95 32.891-4.69 43.855 57.79 49.234 77.66 77.909 4.89 7.053 7.95 14.73 6.26 22.937-7.5 36.311-56.9 37.36-85.12 44.837-16.81 4.454-31.92 10.196-45.84 20.008-12.2 8.595-23.66 23.455-25.17 38.249-4.88 65.812 78.94 85.608 111.96 128.538 13.69 17.8 9.53 38.652-8.48 51.101-18.54 12.812-37.77 16.096-59.56 18.844-50.9 6.419-100.94-4.574-148.46-22.481-30.59-11.565-54.79-21.501-88.18-24.162-72.04-5.74-155.33 30.56-215.648 68.003-67.784 42.082-119.438 85.019-205.995 70.717-30.808-5.263-62.947-18.135-81.99-44.025-18.221-24.773-11.234-51.911 12.371-70.372 34.529-27.005 77.801-35.612 120.532-43.602 28.43-5.316 81.834-12.748 90.246-48.029 6.224-38.303-59.562-49.216-83.773-61.707-9.071-4.68-18.486-10.385-24.459-19.098-5.533-8.148-7.469-18.577-5.529-28.06 2.395-11.697 9.784-21.302 18.985-28.645 42.227-33.701 100.325-30.543 150.267-42.859 10.201-2.516 27.654-7.888 36.005-14.001 52.438-38.381-18.337-68.259-10.29-109.027 1.996-10.112 9.613-19.429 17.998-24.428 30.75-17.87 65.16-4.139 97.21 3.173 25.77 5.879 63.84 3.191 71.69-28.262 3.35-13.46-5.61-26.914-12.93-37.726" fill="#fed03d"/><path d="M1234.67 130.077c17.19-2.215 37.81 2.804 51.4 13.605 4.67 3.104 8.3 8.146 12.43 11.67 37.06 31.651 28.6 83.738 1.26 118.801-20.88 26.777-49.95 45.278-84.58 49.856-20.25 1.232-38.55-1.586-54.88-14.626-4.4-3.522-7.14-7.058-10.94-10.969-61.89-63.709 7.74-160.855 85.31-168.337" fill="#523b01"/><path d="M1131.25 252.859c-7.18-56.221 48.37-112.306 102.04-117.312 5.08-.474 9.66-.487 14.74-.356 20.9 2.595 32.17 7.53 45.69 24.154 4.35 2.8 7.57 5.233 10.6 9.548 11.11 12.985 14.39 28.929 13.72 45.819-2.46 62.336-84.87 127.133-145.12 96.897a57.6 57.6 0 0 1-16.25-12.567c-2.55-1.941-7.26-8.614-9.09-11.454-10.37-12.848-13.52-17.941-16.33-34.729" fill="#fed03d"/><path d="M1304.32 168.893c11.11 12.985 14.39 28.929 13.72 45.819-2.46 62.336-84.87 127.133-145.12 96.897 2-3.523 3.57-4.376 7.51-5.096 63.76 5.742 122.7-47.498 127.28-110.956.62-8.508-3.32-18.152-3.39-26.664" fill="#e3a60e"/><path d="M1293.72 159.345c4.35 2.8 7.57 5.233 10.6 9.548.07 8.512 4.01 18.156 3.39 26.664-4.58 63.458-63.52 116.698-127.28 110.956-3.94.72-5.51 1.573-7.51 5.096a57.6 57.6 0 0 1-16.25-12.567c2.88.138 3.85.953 6.37 2.348 1.93-.445 4.61-1.451 6.56-2.113 23 5.861 41.77 3.918 63.31-5.898a123.5 123.5 0 0 0 64.13-68.384c7.95-21.368 8.23-40.057-1.34-60.885-.2-.874-1.55-3.773-1.98-4.765" fill="#bc8204"/><path d="M1156.67 299.042c2.88.138 3.85.953 6.37 2.348 6.49 2.675 10.25 4.209 17.39 5.123-3.94.72-5.51 1.573-7.51 5.096a57.6 57.6 0 0 1-16.25-12.567" fill="#e2a40e"/><path d="M1295.7 164.11c9.57 20.828 9.29 39.517 1.34 60.885a123.5 123.5 0 0 1-64.13 68.384c-21.54 9.816-40.31 11.759-63.31 5.898-4.12-1.298-5.95-2.163-9.84-4.1 2.51-1.289 21.42 5.68 26.7 5.679 59.21.004 113.15-52.249 113.91-111.656.1-7.62-5.31-20.071-4.67-25.09" fill="#fedc5e"/><path d="M1131.25 252.859c-7.18-56.221 48.37-112.306 102.04-117.312 5.08-.474 9.66-.487 14.74-.356l.12 1.585c-3.19 1.179-8.48.513-12.2.956-40.01 4.768-76.69 32.037-93.55 68.832a112.8 112.8 0 0 0-8.1 24.671c-1.29 6.176.07 18.786-3.05 21.624" fill="#fee581"/><path d="M1147.58 287.588c3.78 2.124 9.21 6.433 12.18 7.589 3.89 1.937 5.72 2.802 9.84 4.1-1.95.662-4.63 1.668-6.56 2.113-2.52-1.395-3.49-2.21-6.37-2.348-2.55-1.941-7.26-8.614-9.09-11.454" fill="#bc8204"/><path d="M1234.91 146.586c11.03-1.136 25.49 2.311 34.61 8.811a47.43 47.43 0 0 1 19.1 31.593c4.71 30.878-14.82 63.425-38.66 81.725-15.92 12.215-30.5 17.687-50.08 20.794-14.12.726-30.45-2.3-41.22-12.181-27.55-25.291-15.52-67.126 5.78-92.35 18.66-22.111 41.47-35.64 70.47-38.392" fill="#e2a40e"/><path d="M1233.17 151.085c11.5-.939 25.26 1.288 34.6 8.292 28.06 21.045 17.41 61.753.05 85.473a100.04 100.04 0 0 1-66.17 40.216c-13.86.751-28.55-1.039-39.38-10.215-26.99-22.891-14.05-64.833 5.56-87.969 17.05-20.099 39.27-33.302 65.34-35.797" fill="#fee581"/><path d="M1244.71 191.36c3.49-.33 5.22-.672 7.79 1.85.98 8.466-12.76 14.774-19.32 17.07-2.12.875-4.18 1.221-6.31.55-1.7-7.304 12.11-16.67 17.84-19.47" fill="#f8be29"/><path d="M1245.47 194.945c2.2.495 1.42-.095 2.57 1.591-1.3 5.154-10.32 8.731-14.74 10.454-1.18.062-.63.2-1.6-.648 1.62-4.66 9.47-9.417 13.77-11.397" fill="#fedc5e"/><path d="M1207.17 228.492c1.95.676 1.28.347 2.72 2.148 2.39 8.957-6.51 21.849-14.82 25.623-11.42-6.23 6.83-23.289 12.1-27.771" fill="#f8be29"/><path d="m1205.06 234.65.65.658c.98 6.334-4.42 12.704-9.21 16.143-3.44-5.184 5.26-13.586 8.56-16.801" fill="#fedc5e"/><path d="M1185.87 211.663c5.79-.323 12.39-.489 16.69 4.108 1.33 5.549-4.89 6.542-9.15 7.955-5.62 1.758-12.32 3.008-15.7-3.173-.22-5.828 3.33-6.964 8.16-8.89" fill="#f8be29"/><path d="M1185.6 215.393c1.98-.263 3.99-.342 6-.235 2.44.107 4.98.483 6.59 2.271-1.32 1.964-2.06 1.792-4.51 2.841-3.3 1.074-9.57 2.353-11.92-.797.94-2.505 1.46-2.295 3.84-4.08" fill="#fedc5e"/><path d="M1214.58 178.957c11 3.817 5.67 22.864-.42 27.528-9.77-4.817-8.69-21.177.42-27.528" fill="#f8be29"/><path d="M1213.72 184.015c6.6 2.953 2.67 12.048.94 17.383-5.19-3.008-3.98-12.742-.94-17.383" fill="#fedc5e"/><path d="M1224.23 222.5c9.57.896 22.9 7.71 14.84 18.956-9.85 3.856-20.89-10.287-14.84-18.956" fill="#f8be29"/><path d="M1226.99 231.778c-.73-2.788-.93-1.966-.18-4.365 2.4-.512 2.96.144 5.53 1.023 2.74 2.309 5.19 3.977 5.18 7.896-3.88 3.371-8.08-2.121-10.53-4.554" fill="#fedc5e"/><path d="M1215.1 211.198c2.66.29 3.02.324 4.98 2.109 1.93 4.951-.95 6.946-4.87 9.376-1.71-.082-2.32-.456-3.87-1.11-3.35-4.509.37-7.25 3.76-10.375" fill="#f8be29"/><path d="M1356.25 54.158c5.7 1.76 5.55 11.063 6.33 16.255 3.72.985 10.87 1.8 11.26 6.092-2.46 2.986-7.11 3.801-10.94 4.936-1.09 5.36-1.73 10.389-4.57 15.02-.67-.212-1.75-.771-2.43-1.09-2.43-3.501-3.34-9.958-4.29-14.349-4.5-1.09-8.73-1.38-11.16-5.101l.65-1.516c2.6-2.27 7.07-3.017 10.54-3.895 1.06-5.56 1.61-11.755 4.61-16.352M833.129 533.907a7.8 7.8 0 0 1 7.487 2.859 7.81 7.81 0 0 1-5.494 12.615 7.81 7.81 0 0 1-8.383-6.786 7.81 7.81 0 0 1 6.39-8.688m232.041-411.212c4.12-1.182 8.42 1.223 9.57 5.356 1.14 4.133-1.3 8.409-5.44 9.522a7.717 7.717 0 0 1-9.44-5.39c-1.13-4.085 1.24-8.321 5.31-9.488m-95.433 201.817a6.882 6.882 0 0 1 8.901 8.066 6.885 6.885 0 0 1-13.277.526 6.886 6.886 0 0 1 4.376-8.592m354.163 73.595a5.465 5.465 0 0 1 6.18 4.555 5.467 5.467 0 0 1-9.63 4.321 5.48 5.48 0 0 1-.87-5.444 5.48 5.48 0 0 1 4.32-3.432m-240.17-27.875a4.817 4.817 0 1 1 4.88 8.309 4.82 4.82 0 0 1-6.58-1.724 4.825 4.825 0 0 1 1.7-6.585m-7.94-163.378a4.774 4.774 0 0 1 4.84 4.361 4.77 4.77 0 0 1-4.04 5.111 4.77 4.77 0 0 1-4.56-1.904 4.78 4.78 0 0 1-.41-4.926 4.76 4.76 0 0 1 4.17-2.642" fill="#fee581"/><path d="M0 0h419.885c-35.009 33.509-26.356 55.917 21.532 61.834 18.074 2.234 42.735 4.45 57.448 17.66 31.923 33.66-11.347 65.964-38.522 78.424-34.793 15.952-115.602 38.053-116.545 83.596a30.97 30.97 0 0 0 9.25 22.611c24.847 24.855 82.461 12.249 89.902 51.255.924 4.845-3.989 14.372-7.507 17.567-23.326 22.052-64.841 19.798-94.198 21.197a299 299 0 0 0-30.307 3.121c-52.736 8.123-102.491 34.946-140.788 71.945-22.878 22.102-44.934 43.429-79.588 43.316-24.288-.08-56.062-13.226-56.69-41.732-.34-15.41 14.275-28.251 24.675-37.649 9.536-8.467 18.865-21.04 8.3-32.26C51.29 344.363 19.426 350.971 0 347.486z" fill="#fed03d"/><path d="M0 226.77c2.777-2.868 2.056-2.925 5.497-3.967 2.648.781 1.718.184 3.53 2.246.724 2.476.853 2.831.095 5.271-2.1 2.109-1.027 1.54-4.13 2.021-2.578-.794-2.897-1.1-4.992-2.83z" fill="#f8be29"/><path d="M180.513 119.598a25 25 0 0 1 1.213-.114c24.777-1.798 45.726 9.927 63.527 25.606 18.021-4.648 67.547-14.799 65.515 18.966-1.137 18.897-24.872 38.695-39.063 50.238a87.53 87.53 0 0 1-23.113 57.372 86.2 86.2 0 0 1-60.53 27.964c-23.974.587-40.439-7.71-58.449-21.885-16.408 3.007-32.59 5.302-49.04 2.835-26.282-3.941-32.385-23.54-16.404-43.695 10.225-12.897 20.539-20.419 34.028-29.345 2.229-47.16 34.003-83.889 82.316-87.942" fill="#523b01"/><path d="M157.655 129.989a75.5 75.5 0 0 1 49.308-1.498 82.7 82.7 0 0 1 48.797 38.635 83 83 0 0 1 8.157 20.421c-13.93 12.164-33.493 25.286-50.306 33.213-19.424 10.342-40.972 18.519-61.975 25.008a295 295 0 0 1-35.833 8.089c-3.119-6.03-5.145-10.322-7.695-16.607-3.937-11.85-4.727-19.098-4.617-31.481.107-10.654 3.916-23.948 8.377-33.6a80.7 80.7 0 0 1 45.787-42.18" fill="#fed03d"/><path d="M206.963 128.491a82.7 82.7 0 0 1 48.797 38.635 83 83 0 0 1 8.157 20.421c-13.93 12.164-33.493 25.286-50.306 33.213 19.083-28.232 25.037-60.303-.997-86.55-1.878-1.893-3.754-3.833-5.651-5.719" fill="#f8be29"/><path d="M245.472 176.15c4.053 3.463 2.626 10.172-.785 13.871-3.432-3.265-1.085-10.241.785-13.871" fill="#e2a40e"/><path d="M103.491 205.769c.107-10.654 3.916-23.948 8.377-33.6a80.7 80.7 0 0 1 45.787-42.18l1.07 1.703c-.445 1.079-.203 1.216-1.202 1.792-10.447 6.019-18.829 10.573-27.153 19.725-13.058 14.357-19.45 31.215-23.597 49.858-.123.551-2.631 2.333-3.282 2.702" fill="#fee581"/><path d="M108.108 237.25c8.185 2.53 16.677 4.887 25.14 6.282 5.8.956 12.84.987 18.388 2.236a295 295 0 0 1-35.833 8.089c-3.119-6.03-5.145-10.322-7.695-16.607" fill="#f8be29"/><path d="M143.401 148.633c3.803-.408 5.91-.71 8.906 2.127 4.578 8.778-10.9 22.627-18.012 26.26-8.458 1.945-10.928-3.264-7.987-10.58 3.586-8.925 8.489-13.848 17.093-17.807" fill="#fee581"/><path d="M140.184 188.333c13.333 2.993 7.813 15.58-1.571 20.254-14.131-2.784-8.237-15.466 1.571-20.254m37.895-42.992c3.981.024 6.353.348 6.964 4.572-.723 2.878-2.04 3.763-4.158 5.885-2.577.308-2.89.305-5.253-.749-3.478-4.147-.823-6.744 2.447-9.708m14.128 35.259c8.831.352 7.887 5.877 2.477 10.702-8.113.338-8.06-6.013-2.477-10.702m-28.004 38.879c3.055.706 3.701.943 4.915 3.622-.337 2.871-1.841 4.513-3.511 6.844-3.665-.59-4.366-1.099-4.96-4.489.722-3.018 1.563-3.714 3.556-5.977m36.606-73.571a3.168 3.168 0 1 1 3.58 5.227 3.168 3.168 0 0 1-3.58-5.227m-80.395 69.924.948 1.061c-.081 2.885-1.557 6.213-2.569 9.021-1.924-2.332-.42-7.841 1.621-10.082" fill="#f8be29"/><path d="m252.155 153.013-2.163-2.72.187-1.092c12.683-5.914 53.4-9.342 55.91 10.974 1.273 25.17-42.703 55.499-61.798 66.698l3.232 3.534c-3.827 2.29-8.269 5.104-12.193 7.091l-10.996 5.931c-1.071-.937-3.448-2.29-4.738-3.079-33.129 16.151-108.522 45.992-144.246 33.855a70 70 0 0 1-3.521-1.315l-3.119-1.458c-5.33-2.655-7.082-5.291-8.496-10.784-1.547-14.252 25.557-43.761 37.73-46.365l.848 3.894c.213 2.444.34 5.202.937 7.548-7.037 6.648-11.527 10.417-14.31 19.922-.099 1.627.042 1.664-.567 3.166 24.165 38.93 219.206-53.221 192.891-86.776-2.069-1.307-3.47-1.889-5.671-2.876-5.476-1.15-9.926-.593-15.383-.039z" fill="#fed03d"/><path d="M71.83 272.89c9.16-1.28 22.038.829 36.106-1.238 62.054-9.12 126.995-37.387 174.391-78.854 6.105-5.361 10.814-11.861 15.253-18.583 2.394-3.625 5.586-11.73 8.509-14.04 1.273 25.17-42.703 55.499-61.798 66.698l3.232 3.534c-3.827 2.29-8.269 5.104-12.193 7.091l-10.996 5.931c-1.071-.937-3.448-2.29-4.738-3.079-33.129 16.151-108.522 45.992-144.246 33.855a70 70 0 0 1-3.52-1.315" fill="#f8be29"/><path d="m244.291 226.873 3.232 3.534c-3.827 2.29-8.269 5.104-12.193 7.091l-3.915-3.249z" fill="#483201"/><path d="m219.596 240.35 11.819-6.101 3.915 3.249-10.996 5.931c-1.071-.937-3.448-2.29-4.738-3.079" fill="#593e05"/><path d="M277.743 162.037c2.491-.857 1.433-.858 3.932-.155 8.202 8.236-3.723 24.221-10.07 29.965-33.799 30.588-77.471 50.367-120.874 63.087-14.02 4.106-29.669 7.85-44.341 7.561-7.145-.14-25.766-2.582-21.539-13.682 24.166 38.93 219.207-53.221 192.892-86.776" fill="#fedc5e"/><path d="M98.792 218.177c.213 2.444.34 5.202.937 7.548-7.037 6.648-11.527 10.417-14.31 19.922-4.41-10.466 6.588-20.36 13.373-27.47m153.363-65.164c5.369-.03 18.567-.286 19.917 6.148-5.476-1.15-9.926-.593-15.383-.039z" fill="#f8be29"/><path d="M60.214 260.648c4.123.593 9.054 3.931 9.302 8.433l-.806 2.351c-5.33-2.655-7.082-5.291-8.496-10.784" fill="#fedc5e"/><path d="M247.523 230.407c6.307-4.094 12.868-8.503 19.244-12.425-3.885 25.174-12.116 44.56-33.602 60.448a79.22 79.22 0 0 1-58.754 14.783c-14.793-2.244-26.596-8.183-38.472-16.902 29.168-7.451 61.768-18.72 88.395-32.882l10.996-5.931c3.924-1.987 8.366-4.801 12.193-7.091" fill="#f8be29"/><path d="M233.869 248.72c2.797.182 2.936.469 4.613 2.03l.044 1.703c-1.194 3.004-3.038 4.069-5.581 6-2.907-1.235-3.058-.71-4.308-3.082.698-2.686 3.155-4.583 5.232-6.651m-30.882 21.055c2.464 1.211 2.211.593 3.015 2.535-.677 2.223-2.631 3.486-4.478 5.086-2.513-1.111-1.833-.405-3.166-2.532.605-2.292 2.67-3.496 4.629-5.089" fill="#e2a40e"/><path d="M100.22 231.626c.928.901 7.735 18.455 9.872 22.345-3.331.088-7.151-.203-10.52-.382-17.16-3.971-7.06-14.201.648-21.963m159.44-68.156c12.331-.369 21.695.425 12.994 14.542l-4.685 5.476c-2.149-7.948-4.56-12.915-8.309-20.018" fill="#fedc5e"/><path d="M68.27 79.682c5.576.965 5.705 10.492 7.208 15.6 3.801 1.095 9.092 1.937 11.043 5.254l-.55 1.556c-2.591 2.268-6.905 3.062-10.336 3.986-1.696 5.089-2.33 9.512-4.425 15.35-5.3-1.096-5.756-10.233-7.201-15.173a193 193 0 0 1-6.379-1.801c-2.225-.69-3.708-1.229-4.813-3.307l.657-1.68c2.537-2.264 7.137-3.252 10.53-4.255 1.831-5.39 1.642-9.647 4.266-15.53m282.108 12.325a7.66 7.66 0 0 1 8.515 6.368 7.663 7.663 0 1 1-8.515-6.368m-189.58 261.06a7.63 7.63 0 0 1 7.893 6.842 7.628 7.628 0 1 1-14.482-2.48 7.63 7.63 0 0 1 6.589-4.362M278.327 43.15a4.866 4.866 0 1 1 2.822 9.315 4.866 4.866 0 0 1-2.822-9.315M109.022 55.18a4.84 4.84 0 1 1 4.303 8.67 4.84 4.84 0 0 1-4.303-8.67" fill="#fee581"/><path d="M0 633.448c23.762 1.023 43.623 7.226 59.924 24.744 30.459 32.734 12.125 66.689 10.31 103.937-.932 19.162 16.878 31.416 34.556 30.852 16.223.254 33.268-3.788 48.928-6.521 54.527-9.518 109.918 15.296 115.32 76.026.902 6.752 1.694 13.504 3.212 20.136 11.802 51.543 69.034 38.017 107.744 34.121 78.123-7.864 137.738 35.051 164.435 107.257H0z" fill="#fed03d"/><path d="M83.41 945.719a4.903 4.903 0 1 1-2.573 8.246 4.905 4.905 0 0 1 2.573-8.246m41.861-66.781a4.83 4.83 0 0 1 5.334 4.265 4.831 4.831 0 1 1-9.602 1.076 4.83 4.83 0 0 1 4.268-5.341" fill="#fee581"/><path d="M1213.77 808.715c1.7 1.832 4.25 4.041 4.69 6.297l-.93 1.811c-1.06 10.937 4.27 14.397 13.7 8.196 3.74 2.971 7.48 6.015 11.36 8.792 2.64 1.449 5.89 3.36 8.54 4.631-5.36 8.708-15.08 32.481-19.79 43.346-7.32 16.881-16.65 35.672-23.39 52.354 6.39 6.217 9.25 11.321 9.38 20.53.01 1.068 0 2.135-.02 3.203 27.21-6.195 44.7 5.276 52.32 31.692 10.22-3.773 15.73-3.864 26.47-1.103 3.5-15.404 10.83-27.882 24.47-36.456a52.57 52.57 0 0 1 40.01-6.301c1.59.386 3.17.836 4.73 1.35 1.42-19.513 8.35-34.678 23.4-47.715a65.4 65.4 0 0 1 47.68-15.796c8.06.604 14.52 2.54 22 5.393 10.56-33.914 42.05-55.707 77.61-46.978V1024H966.657c7.5-15.49 29.391-22.99 45.703-21.04 4.72-25.928 16.51-37.594 43.27-40.043-9.95-36.61 22.69-66.27 57.88-53.366 18.84-21.771 40.94-43.831 61.43-64.135 11.53-11.425 26.6-26.804 38.83-36.701" fill="#fedc5e"/><path d="M1452.72 974.199q.435-2.478.93-4.944c6.74-33.225 37.11-53.65 70.54-49.271 3.93.515 7.93 1.463 11.81 2.314V1024h-168.18c.25-8.3 1.51-15.37 4.77-23.08a54.74 54.74 0 0 1 30.24-29.908c17.67-6.989 33.14-4.13 49.89 3.187" fill="#fed03d"/><path d="M1156.72 902.988c-1.99-1.455-3.49-2.17-4.27-4.428 2.79-8.815 57.69-76.339 65.08-81.737-1.06 10.937 4.27 14.397 13.7 8.196 3.74 2.971 7.48 6.015 11.36 8.792-7.98 13.91-50.74 83.885-60.51 86.571-4.28 1.176-4.99-2.355-8.15-4.062-5.88 6.342-26.51 30.329-35.08 29.284-7.37-6.65 13.75-36.224 17.87-42.616" fill="#fee581"/><path d="m1371.44 604.385 4.7 3.886c1.46-.537 2.69-1.561 3.96-2.473l1 .535c3.52 2.788 6.11 4.971 10.21 6.852l-.1.458c-.84 1.375-1.45 2.143-1.74 3.74l-.6.05c5.3 50.561-22.59 98.053-53.01 136.198-17.44 21.86-47.15 49.045-73.12 60.302 5.92-12.223 16.84-35.349 13.92-49.078.69-3.922 1.8-8.176-.47-11.759a5.14 5.14 0 0 0-3.62-2.347c-11.83-1.79-34.71 26.58-39.26 36.638-.68.56-2.52 3.484-3.13 4.401-1.95-2.111-3.59-4.133-5.41-6.355 5.54-19.444 10.25-35.956 18.93-54.364a303.4 303.4 0 0 1 36.52-58.373c26.66-33.544 50.52-53.693 91.22-68.311" fill="#fed03d"/><path d="m1380.1 605.798 1 .535c3.52 2.788 6.11 4.971 10.21 6.852l-.1.458c-.84 1.375-1.45 2.143-1.74 3.74l-.6.05a618 618 0 0 1-12.73-9.162c1.46-.537 2.69-1.561 3.96-2.473" fill="#806435"/><path d="M1288.83 728.196c-12.77-14.627-11.75-36.718 2.31-50.102 14.07-13.384 36.18-13.309 50.15.17 13.97 13.48 14.84 35.577 1.98 50.117-12.87 14.539-34.9 16.357-49.98 4.123a36 36 0 0 1-4.46-4.308" fill="#523b01"/><path d="M1285.4 713.407a31.98 31.98 0 0 1 6.68-30.32 31.96 31.96 0 0 1 29.25-10.366c15.58 2.614 26.91 16.206 26.68 31.999-.22 15.792-11.94 29.056-27.58 31.226s-30.52-7.404-35.03-22.539" fill="#fed03d"/><path d="M1285.4 713.407a31.98 31.98 0 0 1 6.68-30.32 31.96 31.96 0 0 1 29.25-10.366c-1.9 2.057-4.97 2.811-7.64 3.56-21.55 6.022-26.29 16.455-25.6 37.609l.05-.34-.88 2.049z" fill="#fedc5e"/><path d="M1311.38 680.044c13.45-2.497 26.37 6.385 28.86 19.833s-6.4 26.368-19.85 28.851c-13.43 2.482-26.34-6.398-28.83-19.838-2.48-13.439 6.39-26.352 19.82-28.846" fill="#593e05"/><path d="M1297.57 714.074c-4.43-8.629-2.27-19.183 5.21-25.364a20.65 20.65 0 0 1 25.89-.334 20.67 20.67 0 0 1 7.08 22.053 20.66 20.66 0 0 1-17.86 14.755 20.66 20.66 0 0 1-20.32-11.11" fill="#806435"/><path d="M1297.57 714.074c-4.43-8.629-2.27-19.183 5.21-25.364a20.65 20.65 0 0 1 25.89-.334c-.91 8.499-11.51 7.947-17.01 12.89-5.89 5.286-6.81 8.355-14.09 12.808" fill="#806334"/><path d="M1309.03 687.843c2.91-.26 3.6-.516 6 .861 1.83 4.357-5.34 8.005-8.37 9.81-2.41.849-3.2.917-5.15.021l-.26-1.663c1.89-5.089 3.51-6.176 7.78-9.029" fill="#e8d7b6"/><path d="m1330.53 627.559 2.02 1.278c2.82 5.801-9 11.781-13.32 14.288-1.57-.265-1.5-.412-2.71-1.5l.11-1.884c3.13-5.186 8.92-8.707 13.9-12.182" fill="#fee581"/><path d="m1364.71 627.992 2.27 2.787c-2.75 3.952-14 21.488-17.77 21.269.79-6.099 11.46-18.952 15.5-24.056m0 0c2.16-3.264 7.83-13.247 11.68-13.835 1.21 3.722-6.7 13.881-9.41 16.622zm-75.88 100.204a36 36 0 0 0 4.46 4.308c-2.91 1.407-7.09 8.692-14.29 13.282 2.81-6.994 6.38-11.068 9.83-17.59" fill="#f8be29"/><path d="m1341.06 620.895 1.71 1.204.13 1.435c-1.54 2.722-4.03 4.075-6.65 5.923-.51-.206-1.36-1.152-1.76-1.547l-.02-1.517c1.68-2.514 4.05-3.776 6.59-5.498" fill="#fee581"/><path d="m1259.68 710.156.9 1.388c-1.07 4.56-4.8 11.042-7.21 15.064-.52-.238-.41-.404-.8-1.14 1.89-4.965 4.75-10.475 7.11-15.312" fill="#fedc5e"/><path d="m1400.23 617.094 6.22-1.31c-3.28 6.887 1.51 19.129 1.94 28.038 2.37 49.492-21.48 93.432-51.81 130.347 11.99 40.033-3.56 79.298-42.07 98.345-3.37 1.666-9.52.43-11.24-3.194-2.21-18.332 3.26-27.23-5.79-47.333-5.79 2.488-12.98 5.946-19.11 6.844-8.73 13.304-11.01 16.387-27.24 9.611-2.65-1.271-5.9-3.182-8.54-4.631-3.88-2.777-7.62-5.821-11.36-8.792-9.43 6.201-14.76 2.741-13.7-8.196l.93-1.811c-.44-2.256-2.99-4.465-4.69-6.297l-3.07-4.531c1.77-1.982 1.47-1.42 4.33-2.426l.07-.408c2.33-1.385 5.34-8.399 6.98-11.405-1.39-1.836-1.64-2.208-2.5-4.338 1.3-.384 2.47-1.476 3.58-2.333l1.61 2.159c1.82 2.222 3.46 4.244 5.41 6.355.61-.917 2.45-3.841 3.13-4.401 4.55-10.058 27.43-38.428 39.26-36.638a5.14 5.14 0 0 1 3.62 2.347c2.27 3.583 1.16 7.837.47 11.759 2.92 13.729-8 36.855-13.92 49.078 25.97-11.257 55.68-38.442 73.12-60.302 30.42-38.145 58.31-85.637 53.01-136.198l.6-.05c3.27 1.725 6.22 3.383 9.91 4.063.47-1.503.61-2.805.85-4.352" fill="#523b01"/><path d="M1389.47 617.383c3.27 1.725 6.22 3.383 9.91 4.063 10.39 44.918-2.45 81.397-25.65 120.391-18.16 30.534-59.2 72.376-94.41 81.899-11.32-3.258-20.58-8.832-29.58-16.342 13.21-15.039 19.16-24.014 26.92-42.539 2.92 13.729-8 36.855-13.92 49.078 25.97-11.257 55.68-38.442 73.12-60.302 30.42-38.145 58.31-85.637 53.01-136.198zm-150.94 169.575c6.8-10.004 21.41-31.493 34.17-32.027-1.2 1.325-2.69 3.062-3.93 4.287-2.64 7.32-14.75 19.691-20.57 28.097-2.54 2.687-5.22 7.219-7.49 10.352l-4.46 5.625c-1.22.953-3.13 2.63-4.34 3.336-2.03 4.203-5.28 12.048-9.04 14.417l-.77-.902c1.75-6.751 6.02-14.182 9.26-20.564z" fill="#f8be29"/><path d="M1231.91 806.628c6.61-15.19 24.28-36.134 36.86-47.41-2.64 7.32-14.75 19.691-20.57 28.097-2.54 2.687-5.22 7.219-7.49 10.352l-4.46 5.625c-1.22.953-3.13 2.63-4.34 3.336" fill="#e3a60e"/><path d="M1272.7 754.931c2.39 7.641-8.04 25.731-12.84 32.273-3.45-.711-8.05-.151-11.66.111 5.82-8.406 17.93-20.777 20.57-28.097 1.24-1.225 2.73-2.962 3.93-4.287" fill="#a7750c"/><path d="M1231.91 806.628c1.21-.706 3.12-2.383 4.34-3.336l.31 2.06c2.82.394 5.58-.825 6.91 2.034-4.16 4.254-13.89 14.145-19.22 15.726-2.08-.471-1.32.08-2.47-1.526l.32-1.443.77.902c3.76-2.369 7.01-10.214 9.04-14.417" fill="#bc8204"/><path d="M1233.31 787.387c1.96-.45 3.45-2.96 4.72-4.621 1.02 1.721.61 1.771.5 4.192l-7.17 12.621c-.87-2.185-1.33-2.264-3.4-3.636-2.11-1.006-4.27-4.069-5.88-5.998-1.39-1.836-1.64-2.208-2.5-4.338 1.3-.384 2.47-1.476 3.58-2.333l1.61 2.159c1.82 2.222 3.46 4.244 5.41 6.355.61-.917 2.45-3.841 3.13-4.401" fill="#593e05"/><path d="M1222.08 789.945c1.61 1.929 3.77 4.992 5.88 5.998-2.06 4.226-4.77 9.427-6.55 13.68l-6.38-7.865.07-.408c2.33-1.385 5.34-8.399 6.98-11.405" fill="#e3a60e"/><path d="M1248.2 787.315c3.61-.262 8.21-.822 11.66-.111-1.94 2.886-4.26 6.57-6.51 9.099-4.57.302-8.1.703-12.64 1.364 2.27-3.133 4.95-7.665 7.49-10.352" fill="#bc8204"/><path d="M1240.71 797.667c4.54-.661 8.07-1.062 12.64-1.364-2.67 3.195-6.85 8.533-9.88 11.083-1.33-2.859-4.09-1.64-6.91-2.034l-.31-2.06z" fill="#a7750c"/><path d="M1352.62 778.463c.48 2.075 1.81 7.198 1.76 9.015 4.17 31.427-8.65 63.422-37.86 78.08-2.09 1.315-3.14 1.708-5.44 2.622-5.38-1.149-3.53-8.124-3.02-12.375l.69-7.405c-1.06-12.221-2.02-17.662-6.94-28.89 18.19-10.064 29.16-19.146 43.87-33.948z" fill="#e3a60e"/><path d="M1301.81 819.51c18.19-10.064 29.16-19.146 43.87-33.948 1.11 3.817 2.92 8.883 1.64 12.761-11.22 11.14-14.36 14.484-28.53 21.632-2.19 6.497-7.05 23.724-10.04 28.445-1.06-12.221-2.02-17.662-6.94-28.89" fill="#bc8204"/><path d="M1348.26 798.661c1.44-4.285 3.63-7.469 6.12-11.183 4.17 31.427-8.65 63.422-37.86 78.08l-.38-.597c.26-1.707 2.81-3.783 4.17-5.141 18.02-16.874 26.4-36.712 27.95-61.159" fill="#fed03d"/><path d="M1308.06 855.805c4.7-1.773 8.14 1.487 12.25 4.015-1.36 1.358-3.91 3.434-4.17 5.141l.38.597c-2.09 1.315-3.14 1.708-5.44 2.622-5.38-1.149-3.53-8.124-3.02-12.375" fill="#e2a40e"/><path d="M1242.81 814.351c1.92-1.857 1.74-2.368 3.75-2.507 10.68 7.107 15.37 10.324 26.74 15.509-2.29 3.397-4.57 7.081-7.45 9.961-6.6-1.08-9.26-1.722-15.12-4.963l-5.37-2.989c-3.98-2.283-6.88-4.811-10.41-7.702z" fill="#bc8204"/><path d="M1242.81 814.351c2.83 1.757 5.65 3.552 8.43 5.384-1.54 4.335-2.42 6.286-5.88 9.627-3.98-2.283-6.88-4.811-10.41-7.702z" fill="#f8be29"/><path d="M1251.24 819.735c2.33 1.594 2.95 1.861 4.04 4.409.42 4.095-1.52 5.816-4.55 8.207l-5.37-2.989c3.46-3.341 4.34-5.292 5.88-9.627" fill="#e3a60e"/><path d="M1243.08 691.521c27-45.298 62.45-83.747 114.86-97.715l3.04 5.125c1.51-.275 2.6-.686 4.06-1.152 2.02 2.226 4.12 4.688 6.4 6.606-40.7 14.618-64.56 34.767-91.22 68.311a303.4 303.4 0 0 0-36.52 58.373c-8.68 18.408-13.39 34.92-18.93 54.364l-1.61-2.159c-1.11.857-2.28 1.949-3.58 2.333.86 2.13 1.11 2.502 2.5 4.338-1.64 3.006-4.65 10.02-6.98 11.405-1.5-1.894-3.66-5.809-4.95-8.025-2.46.894-2.78 1.002-5.24.219.98-5.855 5.44-10.303 9.19-14.989-.04-6.428.36-9.435 1.26-15.752-17.85-.11-27.27 5.968-43.68 10.609-3.31.938-6.73-4.154-6.67-7.265.26-14.686 9.55-32.526 18.28-43.942 16.18-21.165 34.65-27.482 59.79-30.684" fill="#523b01"/><path d="M1365.04 597.779c2.02 2.226 4.12 4.688 6.4 6.606-40.7 14.618-64.56 34.767-91.22 68.311a303.4 303.4 0 0 0-36.52 58.373c-8.68 18.408-13.39 34.92-18.93 54.364l-1.61-2.159-4.12-6.61c1.19-22.691 12.39-49.759 22.1-69.973l3.64-6.942q3-5.285 6.09-10.523c25.06-42.307 61.57-77.806 110.11-90.295 1.51-.275 2.6-.686 4.06-1.152" fill="#fee581"/><path d="M1210.15 793.325c.91-3.25 3.96-8.501 7.42-9.509l2.01 1.791c.86 2.13 1.11 2.502 2.5 4.338-1.64 3.006-4.65 10.02-6.98 11.405-1.5-1.894-3.66-5.809-4.95-8.025" fill="#fedc5e"/><path d="M1202.08 710.904c10.54-7.461 24.64-12.852 37.61-13.158l-2.41 5.245-1.46 2.382c-6.08 12.114-9.66 21.334-14.33 34.116-1.48 5.348-3.77 12.849-4.76 18.101-4.3-.061-8.47-.202-12.75.197-9.96 2.083-16.88 3.915-25.94 8.956-1.95.798-3.01 1.091-5.06 1.636-2.33-.712-1.5-.231-3.12-2.485.4-18.752 17.81-43.938 32.22-54.99" fill="#e3a60e"/><path d="M1202.08 710.904c.8 2.697 1.61 3.751 3.08 6.066-13.02 10.545-26.18 26.543-31.66 42.52-.88 1.737-2.4 5.119-3.64 6.404.4-18.752 17.81-43.938 32.22-54.99" fill="#fed03d"/><path d="M1202.08 710.904c10.54-7.461 24.64-12.852 37.61-13.158l-2.41 5.245-1.46 2.382c-13.68 2.636-18.5 4.79-30.66 11.597-1.47-2.315-2.28-3.369-3.08-6.066" fill="#fed03d"/><path d="M1203.98 757.787c1.55-3.563 13.67-16.617 17.51-18.298-1.48 5.348-3.77 12.849-4.76 18.101-4.3-.061-8.47-.202-12.75.197" fill="#bc8204"/><path d="M1169.86 765.894c1.24-1.285 2.76-4.667 3.64-6.404 3.88 2.117 4.57 2.779 4.54 7.253-1.95.798-3.01 1.091-5.06 1.636-2.33-.712-1.5-.231-3.12-2.485" fill="#e2a40e"/><path d="M1393.03 580.799c4.23 3.617 7.77 6.457 12.23 9.787l-7.03 11.105c3.83 2.094 5.97-1.031 10.14.918l-4.48 7.202.12.52c3.14.401 2.05-.117 4.31 1.756l-1.87 3.697-6.22 1.31c-.24 1.547-.38 2.849-.85 4.352-3.69-.68-6.64-2.338-9.91-4.063.29-1.597.9-2.365 1.74-3.74l.1-.458c-4.1-1.881-6.69-4.064-10.21-6.852l-1-.535-5.57-4.365c6.74-6.878 11.89-13.897 18.5-20.634" fill="#806435"/><path d="M1391.21 613.643c4.76-1.199 8.05-2.19 12.68-3.832l.12.52c3.14.401 2.05-.117 4.31 1.756l-1.87 3.697-6.22 1.31c-.24 1.547-.38 2.849-.85 4.352-3.69-.68-6.64-2.338-9.91-4.063.29-1.597.9-2.365 1.74-3.74" fill="#6a4c16"/><path d="M1404.01 610.331c3.14.401 2.05-.117 4.31 1.756l-1.87 3.697-6.22 1.31c1.04-2.616 2.28-4.41 3.78-6.763" fill="#483201"/><path d="M1398.23 601.691c3.83 2.094 5.97-1.031 10.14.918l-4.48 7.202c-4.63 1.642-7.92 2.633-12.68 3.832l.1-.458c1.14-1.651 3.22-5.719 4.27-7.66.96-1.186 1.8-2.553 2.65-3.834" fill="#806334"/><path d="M1381.1 606.333c1.12-.957 13.02-1.418 14.48-.808-1.05 1.941-3.13 6.009-4.27 7.66-4.1-1.881-6.69-4.064-10.21-6.852" fill="#a7750c"/><path d="m1390.28 575.355 3.74-.866 2.32 1.118c6.44 2.72 10.92 5.02 15.09 10.917 1.78 1.593 2.11 3.719 2.86 6.091l-.19.493c-1.95 3.697-3.4 6.016-5.73 9.501-4.17-1.949-6.31 1.176-10.14-.918l7.03-11.105c-4.46-3.33-8-6.17-12.23-9.787-1.67-2.09-1.84-2.95-2.75-5.444" fill="#6a4c16"/><path d="M1396.34 575.607c6.44 2.72 10.92 5.02 15.09 10.917l-1.56.585c-5.17-.798-10.62-5.458-13.84-9.464z" fill="#806334"/><path d="M1390.28 575.355c.91 2.494 1.08 3.354 2.75 5.444-6.61 6.737-11.76 13.756-18.5 20.634-2.36-1.539-3.66-2.9-5.66-4.822 3.62-2.311 4.56-3.112 7.68-6.091 2.3-2.208 4.97-5.659 7.05-8.212 2.36-2.911 3.64-4.74 6.68-6.953" fill="#a7750c"/><path d="M1390.75 569.664c11.6.928 23.37 8.57 28.18 19.304-1.53 1.983-2.49 2.361-4.64 3.647-.75-2.372-1.08-4.498-2.86-6.091-4.17-5.897-8.65-8.197-15.09-10.917l-2.32-1.118-1.45-.121c-1.76-1.294-1.35-1.996-1.82-4.704" fill="#483201"/><path d="M1418.93 588.968c1.13 8.62-5.85 15.707-10.61 23.119-2.26-1.873-1.17-1.355-4.31-1.756l-.12-.52 4.48-7.202c2.33-3.485 3.78-5.804 5.73-9.501l.19-.493c2.15-1.286 3.11-1.664 4.64-3.647" fill="#523b01"/><path d="M1371.77 587.949c1.42.842 3.27 2.095 4.78 2.571-3.12 2.979-4.06 3.78-7.68 6.091l-3.83 1.168c-1.46.466-2.55.877-4.06 1.152l-3.04-5.125c7.17-1.094 8.2-1.359 13.83-5.857m7.45-8.243c4.04-5.045 5.5-7.886 11.53-10.042.47 2.708.06 3.41 1.82 4.704l1.45.121-3.74.866c-3.04 2.213-4.32 4.042-6.68 6.953-1.5-.659-2.98-1.7-4.38-2.602" fill="#593e05"/><path d="M1379.22 579.706c1.4.902 2.88 1.943 4.38 2.602-2.08 2.553-4.75 6.004-7.05 8.212-1.51-.476-3.36-1.729-4.78-2.571z" fill="#483201"/><path d="M1204.91 793.544c2.46.783 2.78.675 5.24-.219 1.29 2.216 3.45 6.131 4.95 8.025l-.07.408c-2.86 1.006-2.56.444-4.33 2.426-2.58-2.942-4.39-7.04-5.79-10.64" fill="#593e05"/><path d="M488.685 626.73c28.336-2.388 62.192 13.418 83.789 30.708 47.656 38.15 79.093 115.632 37.189 169.036-4.783 6.096-10.647 11.117-16.169 16.496-17.892 18.602-33.185 24.566-58.42 27.199-71.836 1.747-136.301-59.17-142.725-130.656-3.322-36.958 12.965-58.744 36.076-84.991 16.604-18.857 35.679-26.266 60.26-27.792" fill="#523b01"/><path d="M426.488 666.939c5.491-7.702 10.303-13.931 18.037-19.608 35.801-26.278 84.788-14.438 118.201 9.694 11.599 8.377 33.594 29.184 39.201 42.246 6.86 8.556 16.771 31.516 18.291 42.378 7.757 29.303 3.555 63.792-19.428 85.8-1.341 1.285-4.391 3.981-5.447 5.338-1.857 2.618-9.437 10.564-11.969 12.226-37.626 34.387-96.444 18.843-132.385-10.03-44.256-35.554-75.245-107.165-34.978-156.772 3.596-4.647 6.293-7.195 10.477-11.272" fill="#fed03d"/><path d="M416.011 678.211c.133 2.347-.302 4.423-.929 6.673-9.863 35.421 3.518 74.635 24.04 103.722 2.436 3.454 6.81 9.646 9.728 12.537l1.421 1.51c5.277 5.68 9.733 10.032 15.414 15.325l1.131.621c26.77 22.444 58.2 35.196 93.538 32.063 7.443-.66 18.948-5.714 23.02-5.649-37.626 34.387-96.444 18.843-132.385-10.03-44.256-35.554-75.245-107.165-34.978-156.772" fill="#e3a60e"/><path d="m448.85 801.143 1.421 1.51c-4.929 3.92-7.115 9.036-14.021 13.87 2.44-4.959 7.346-13.256 12.6-15.38m16.835 16.835 1.131.621c-3.594 4.192-8.177 9.224-12.667 12.36 3.909-6.006 6.01-8.437 11.536-12.981m-33.787-32.151.793.391.314.938c-2.099 2.847-3.927 4.946-6.268 7.6l-.699-.323c-2.332-3.877 2.855-6.892 5.86-8.606m-22.257-47.955.895.982c-.562 2.384-3.518 5.572-5.204 7.671l-.547-.535c.089-3.008 2.868-6.005 4.856-8.118m6.492 17.557.014 1.022c-1.49 2.867-4.226 5.06-6.622 7.295-.09-.324.031-1.365.058-1.762 1.991-3.197 3.602-4.227 6.55-6.555" fill="#e2a40e"/><path d="M426.488 666.939c-2.06 5.066-4.297 10.33-6.164 15.449 1.04 1.078 2.689 2.574 3.209 3.869-.561 2.373-1.194 4.876-1.63 7.264-11.543 63.214 44.491 132.537 103.972 146.296a113 113 0 0 0 29.394 2.873c3.777-.144 19.044-1.694 21.024-1.226 3.99-.578 14.254-6.619 19.05-8.677-1.857 2.618-9.437 10.564-11.969 12.226-4.072-.065-15.577 4.989-23.02 5.649-35.338 3.133-66.768-9.619-93.538-32.063l-1.131-.621c-5.681-5.293-10.137-9.645-15.414-15.325l-1.421-1.51c-2.918-2.891-7.292-9.083-9.728-12.537-20.522-29.087-33.903-68.301-24.04-103.722.627-2.25 1.062-4.326.929-6.673 3.596-4.647 6.293-7.195 10.477-11.272" fill="#bc8204"/><path d="M420.324 682.388c1.04 1.078 2.689 2.574 3.209 3.869-.561 2.373-1.194 4.876-1.63 7.264-11.543 63.214 44.491 132.537 103.972 146.296a113 113 0 0 0 29.394 2.873c3.777-.144 19.044-1.694 21.024-1.226-77.759 26.909-167.398-64.722-159.41-140.614.677-6.428 1.891-12.216 3.441-18.462" fill="#fee581"/><path d="M426.488 666.939c5.491-7.702 10.303-13.931 18.037-19.608 35.801-26.278 84.788-14.438 118.201 9.694 11.599 8.377 33.594 29.184 39.201 42.246l-.579 1.124c-2.105-2.75-1.161-2.21-3.857-3.379-18.256-26.194-43.904-46.471-74.485-56.135-42.634-13.473-85.365-.823-99.473 45.376-.52-1.295-2.169-2.791-3.209-3.869 1.867-5.119 4.104-10.383 6.164-15.449" fill="#fedc5e"/><path d="M597.491 697.016c2.696 1.169 1.752.629 3.857 3.379l.579-1.124c6.86 8.556 16.771 31.516 18.291 42.378-.685 2.431.18 2.163-.241 4.335l-1.112-.278c-1.467-2.397-2.171-5.404-2.809-8.145-3.42-14.697-11.211-27.5-18.565-40.545" fill="#fedc5e"/><path d="M488.744 649.203c56.848-5.18 110.025 46.118 118.282 100.484 5.6 36.877-10.762 71.942-50.346 77.612l-.502.072c-72.329 9.696-152.793-90.041-108.307-156.322 8.611-12.829 25.909-19.996 40.873-21.846" fill="#e2a40e"/><path d="M492.545 653.706c3.107-.359 7.68-.149 10.886.134 52.909 4.666 98.806 55.976 100.175 108.62.35 13.447-3.617 28.65-11.523 39.529-9.657 13.286-22.806 18.531-38.434 20.918-25.769 1.161-46.676-6.599-67.684-22.765-34.878-26.838-63.572-86.315-33.957-126.588 9.405-12.791 25.105-18.163 40.537-19.848" fill="#fee581"/><path d="M481.978 708.162c9.244.398 24.714 10.073 27.451 18.935-.482 2.714-.079 1.725-2.481 3.886-9.936-.219-21.034-4.436-27.57-12.074-3.775-4.412-1.444-8.07 2.6-10.747" fill="#f8be29"/><path d="M482.952 713.343c8.691-.091 17.314 5.594 21.485 13.081-7.391-.668-21.274-3.629-21.485-13.081" fill="#fedc5e"/><path d="M510.824 745.644c2.236-.242 2.304-.215 4.396.735 6.156 6.842-.493 24.381-11.043 27.002-9.956-2.907-8.345-12.428-3.593-19.028 3.389-4.708 5.225-5.822 10.24-8.709" fill="#f8be29"/><path d="M510.853 750.687c1.095.106 1.037.24 2.097.752 2.336 5.688-3.351 13.504-7.56 17.033-2.016-.516-2.058-.644-3.539-2.208-2.251-6.242 4.41-12.368 9.002-15.577" fill="#fedc5e"/><path d="M533.575 749.764c9.266 1.792 26.157 20.311 20.218 31.572-12.109 1.222-24.834-22.478-20.218-31.572" fill="#f8be29"/><path d="M536.217 754.62c3.985 3.487 6.309 5.586 9.9 9.599 2.086 2.547 4.546 5.543 4.642 8.885l-.833 1.322c-4.28.562-6.619-3.555-8.971-6.738-2.697-4.78-3.418-7.886-4.738-13.068" fill="#fedc5e"/><path d="M516.854 688.349c15.804.604 13.2 23.098 7.634 33.029-9.692-1.111-15.094-24.401-7.634-33.029" fill="#f8be29"/><path d="M518.921 693.364c7.916 3.024 6.011 16.392 3.995 22.751-5.237-3.64-6.81-16.864-3.995-22.751" fill="#fedc5e"/><path d="M548.423 725.591c17.695-1.922 27.645 12.777 8.64 16.371-6.098-.436-18.227-1.597-18.881-9.297 1.95-4.371 5.801-5.245 10.241-7.074" fill="#f8be29"/><path d="M549.221 729.954c4.861-.471 9.198-.418 12.906 3.261l-.034 1.606c-1.857 2.067-3.573 2.019-6.385 2.536-5.986-.645-9.469-1.563-15.25-3.034 2.753-1.588 5.871-2.991 8.763-4.369" fill="#fedc5e"/><path d="M521.178 728.101c7.78 2.111 12.213 8.26 5.813 15.013-8.652-1.076-14.238-8.957-5.813-15.013" fill="#f8be29"/><path d="M472.721 739.54q4.486 1.346 9.019 2.52c-3.724.847-13.483 2.84-16.705 3.956-.287-2.496-.463-2.819.414-5.07 1.915-1.65 4.547-1.314 7.272-1.406m77.856-42.344c2.177 1.433 2.428 1.67 2.547 4.085-1.16 3.159-4.771 6.128-7.297 8.558l-.802.191c-.307-2.191 4.264-10.278 5.552-12.834" fill="#fedc5e"/><path d="M906.34 761.775c47.462-4.474 89.585 30.336 94.14 77.802 4.56 47.467-30.161 89.663-77.608 94.309-47.568 4.659-89.886-30.183-94.457-77.772-4.571-47.588 30.34-89.853 77.925-94.339" fill="#a7750c"/><path d="M835.585 866.53c-6.917-29.29 2.95-60.002 25.631-79.778a81.064 81.064 0 0 1 103.59-2.464c24.122 19.093 35.364 50.196 29.029 80.305-6.337 30.109-29.162 54.038-58.933 61.782-29.771 7.745-61.36-2.029-81.559-25.235a81.1 81.1 0 0 1-17.758-34.61" fill="#fedc5e"/><path d="M964.806 784.288c24.122 19.093 35.364 50.196 29.029 80.305-6.337 30.109-29.162 54.038-58.933 61.782-29.771 7.745-61.36-2.029-81.559-25.235l.583.211c5.194 1.93 10.028 4.758 15.724 6.901 16.471 6.194 35.35 6.546 51.835.17l.145-.585c1.791-5.982 7.216-7.982 12.849-5.815 6.029-1.718 14.652-10.501 19.117-15.09 11.497 4.164 20.894-8.801 14.017-19.896 10.645-13.643 12.073-48.464 5.76-63.875-2.433-5.937-6.111-12.054-8.34-18.231z" fill="#fed03d"/><path d="M921.63 907.837c1.791-5.982 7.216-7.982 12.849-5.815l-.031.406c1.299 2.942 1.084 1.654.76 4.903-3.092 5.404-10.326 7.6-13.723 1.091z" fill="#f8be29"/><path d="M835.585 866.53c-6.917-29.29 2.95-60.002 25.631-79.778a81.06 81.06 0 0 1 82.51-14.511c-4.918 2.841-14.157.796-20.002.374-41.353-2.982-71.255 18.726-83.537 57.943-3.571 11.401-1.409 26.063-4.602 35.972" fill="#fee581"/><path d="M953.596 886.932c-3.545-3.547-4.51-8.247-2.794-12.987a13.03 13.03 0 0 1 7.466-7.659c3.648-1.427 6.032-.661 9.345.75 6.877 11.095-2.52 24.06-14.017 19.896" fill="#f8be29"/><path d="M959.87 869.485c2.575.108 3.519-.133 5.186 1.32.046 4.689-5.42 9.386-8.824 13.186l-1.161.885-1.032-.204c-3.59-5.104 1.651-12.082 5.831-15.187m-76.584-37.009c-24.244-14.15 17.088-51.843 27.538-25.821l.876.604c11.913 12.315-14.475 37.887-26.119 27.69l-.362-.954z" fill="#fed03d"/><path d="M883.286 832.476c-24.244-14.15 17.088-51.843 27.538-25.821-3.041-.122-5.173-2.182-7.655-2.662-11.291-2.183-20.69 4.818-21.561 16.498-.34 4.558 2.213 10.718 1.678 11.985" fill="#f8be29"/><path d="M911.7 807.259c11.913 12.315-14.475 37.887-26.119 27.69l-.362-.954c17.949 1.949 28.125-9.042 26.481-26.736" fill="#fee581"/><path d="M887.265 873.753c7.371-1.079 14.214 4.04 15.263 11.417 1.05 7.377-4.094 14.203-11.473 15.224-7.339 1.015-14.118-4.096-15.162-11.433-1.043-7.336 4.041-14.136 11.372-15.208" fill="#fed03d"/><path d="M886.627 782.7c2.139-.217 2.502-.387 4.447.336 3.086 7.289-24.895 29.14-31.104 33.139-1.31.426-2.513.487-3.879.637-4.133-2.423-.041-9.435 1.888-12.563 6.574-10.662 16.344-18.596 28.648-21.549" fill="#fee581"/><path d="M854.039 858.202c-4.183-7.327-2.044-15.664 7.328-16.199 8.933 11.336-2.045 22.659-7.328 16.199" fill="#fed03d"/><path d="M854.039 858.202c-4.183-7.327-2.044-15.664 7.328-16.199-2.326 5.927-5.453 9.106-6.275 15.216z" fill="#f8be29"/><path d="M934.273 844.748a6.714 6.714 0 1 1 12.861 1.194 6.72 6.72 0 0 1-6.881 4.259 6.72 6.72 0 0 1-5.98-5.453" fill="#fed03d"/><path d="M934.273 844.748a6.714 6.714 0 0 1 10.652-6.592c-1.442 1.231-7.923 4.707-10.652 6.592" fill="#f8be29"/><path d="M950.717 801.954a6.513 6.513 0 1 1-3.428 10.823 6.515 6.515 0 0 1 3.428-10.823M147.928 566.841c14.453-14.333 19.345-6.515 33.572-12.698 13.076-5.682 13.512-18.669 34.851-18.553 15.423.356 31.661 10.378 43.55 19.79 8.646 6.843 7.308 21.239 10.691 27.777 10.15 19.617 13.865 41.682-3.806 58.752-16.964 15.221-22.514 26.535-48.039 25.651-9.938-.344-16.947-4.31-23.702-5.088-24.086-2.775-40.068-2.77-48.498-29.436-3.012-3.009-4.994-5.277-7.719-8.564 2.368-.456 2.803-.361 4.42-1.974l-1.979-3.228c-3.486-7.824-3.593-12.65-2.966-21.032 1.322-7.937 5.466-14.683 9.23-21.807l3.751-5.481z" fill="#fed03d"/><path d="M147.928 566.841c14.453-14.333 19.345-6.515 33.572-12.698 13.076-5.682 13.512-18.669 34.851-18.553 15.423.356 31.661 10.378 43.55 19.79 8.646 6.843 7.308 21.239 10.691 27.777 10.15 19.617 13.865 41.682-3.806 58.752-16.964 15.221-22.514 26.535-48.039 25.651-9.938-.344-16.947-4.31-23.702-5.088-24.086-2.775-40.068-2.77-48.498-29.436l.783-1.277 3.976-.786 1.282 3.757c2.877 2.031 3.997 3.155 7.402 2.21 1.661-1.969 1.538-3.339 1.845-5.935 4.099 2.468 9.379 5.261 14.134 6.081l.427-.387c3.509-.933 7.552.916 11.204 2.054 5.352 3.392 18.226.162 23.969-1.483 6.071-9.945 13.791-13.795 25.05-9.271 16.421-8.282 17.337-28.861 15.312-44.504-8.877-3.672-20.821-14.756-10.022-23.574-.884-4.085-1.714-7.248-2.913-11.253-3.527-2.699-4.975-3.427-8.998-5.414-2.423-.881-3.937-1.187-6.417-1.735-24.336-3.806-23.59 8.76-40.971 17.933-13.618 7.188-17.655-1.797-31.326 11.498z" fill="#f8be29"/><path d="M147.928 566.841c14.453-14.333 19.345-6.515 33.572-12.698 13.076-5.682 13.512-18.669 34.851-18.553 15.423.356 31.661 10.378 43.55 19.79 8.646 6.843 7.308 21.239 10.691 27.777 10.15 19.617 13.865 41.682-3.806 58.752-16.964 15.221-22.514 26.535-48.039 25.651-9.938-.344-16.947-4.31-23.702-5.088-24.086-2.775-40.068-2.77-48.498-29.436l.783-1.277 3.976-.786 1.282 3.757.179.589c2.381 7.593 6.621 12.71 13.807 16.354a42.3 42.3 0 0 0 9.883 3.495c6.343 1.373 13.49.98 19.414 2.108 8.631 1.645 14.034 4.706 23.431 5.228a44.3 44.3 0 0 0 16.621-2.274c10.644-3.616 28.895-21.611 34.222-31.708 3.791-7.185 5.577-21.858 2.339-29.59-1.344-3.344-5.272-8.614-6.079-11.89-5.84-23.693-4.315-27.987-27.409-38.374-3.527-2.699-4.975-3.427-8.998-5.414-2.423-.881-3.937-1.187-6.417-1.735-24.336-3.806-23.59 8.76-40.971 17.933-13.618 7.188-17.655-1.797-31.326 11.498z" fill="#523b01"/><path d="M211.569 637.27c6.071-9.945 13.791-13.795 25.05-9.271 4.678 5.281 4.391 4.912 4.58 11.851-3.888 6.898-6.51 8.663-13.914 11.683-11.485-.614-16.752-1.342-15.716-14.263" fill="#a7750c"/><path d="M224.098 630.314c2.38-.258 5.499-.634 7.785-.009a7.82 7.82 0 0 1 4.689 3.695c3.213 5.727-3.176 11.054-7.865 13.182-15.887 2.78-18.271-9.895-4.609-16.868" fill="#e3a60e"/><path d="m241.909 559.921 4.936 1.981c4.628 2.312 7.434 6.328 9.035 11.162.899 5.35 1.552 7.746-3.949 10.431-8.877-3.672-20.821-14.756-10.022-23.574" fill="#e2a40e"/><path d="m241.909 559.921 4.936 1.981-1.122 2.501c-1.98.639-2.137.623-4.241.633.006 7.747 2.747 12.085 10.562 14.098 1.089-3.277 1.251-3.697 3.836-6.07.899 5.35 1.552 7.746-3.949 10.431-8.877-3.672-20.821-14.756-10.022-23.574" fill="#a7750c"/><path d="M246.845 561.902c4.628 2.312 7.434 6.328 9.035 11.162-2.585 2.373-2.747 2.793-3.836 6.07-.263-8.281-2.039-12.204-10.562-14.098 2.104-.01 2.261.006 4.241-.633z" fill="#bc8204"/><path d="M176.396 636.699c3.509-.933 7.552.916 11.204 2.054l.332 1.565c-1.852 3.276-6.751 2.32-9.661.945-1.648-1.771-1.551-2.037-1.875-4.564" fill="#e2a40e"/><path d="M241.199 639.85c1.04 10.094-12.643 15.375-20.201 12.609 2.037-.887 3.884-.326 6.287-.926 7.404-3.02 10.026-4.785 13.914-11.683" fill="#fed03d"/><path d="M259.922 607.906c6.423 3.283 4.088 8.401.904 12.983-1.728-.115-2.068-.436-3.546-1.27-2.968-4.41-.499-8.348 2.642-11.713" fill="#e3a60e"/><path d="M151.284 570.95c13.671-13.295 17.708-4.31 31.326-11.498 17.381-9.173 16.635-21.739 40.971-17.933-1.576 2.548-1.809 3.094-4.356 4.603-21.273-.104-16.882 11.296-34.414 18.052-10.607 4.087-17.07-.109-26.897 9.455a25.8 25.8 0 0 0-4.293 5.49l-2.699 3.687c-6.798 10.107-5.938 11.484-9.195 23.08l-.702.075c-1.188-2.766-2.188-4.735-2.722-7.723 1.322-7.937 5.466-14.683 9.23-21.807z" fill="#fee581"/><path d="M146.145 617.084c9.757-6.073 14.411 6.204 15.69 13.921-.307 2.596-.184 3.966-1.845 5.935-3.405.945-4.525-.179-7.402-2.21l-1.282-3.757-3.976.786-.783 1.277c-3.012-3.009-4.994-5.277-7.719-8.564 2.368-.456 2.803-.361 4.42-1.974l-1.979-3.228c2.274-.448 2.842-.963 4.876-2.186" fill="#e3a60e"/><path d="M146.145 617.084c9.757-6.073 14.411 6.204 15.69 13.921-.307 2.596-.184 3.966-1.845 5.935-3.405.945-4.525-.179-7.402-2.21l-1.282-3.757c2.889 1.265 4.47 2.699 6.916.306.853-4.401-3.32-9.102-6.382-11.901-2.431-.583-3.636-.87-5.695-2.294" fill="#a7750c"/><path d="M143.248 622.498c3.336 3.129 5.272 4.899 8.058 8.475l-3.976.786-.783 1.277c-3.012-3.009-4.994-5.277-7.719-8.564 2.368-.456 2.803-.361 4.42-1.974" fill="#593e05"/><path d="M223.581 541.519c2.48.548 3.994.854 6.417 1.735l-.154 2.802c-2.17 1.466-7.098.008-10.619.066 2.547-1.509 2.78-2.055 4.356-4.603m-66.362 41.919c1.297-3.094 5.271-5.337 8.135-7.35-2.111 3.963-5.454 11.513-10.345 12.109z" fill="#fedc5e"/><path d="M153.621 579.119c2.157 1.577 2.326 1.947 3.598 4.319l-2.21 4.759c-3.134-1.443-3.036-2.35-4.087-5.391z" fill="#f8be29"/><path d="M181.873 577.063c11.425-4.076 18.465-.985 18.567 12.086l.952-3.644c3.122 20.408-24.293 23.333-26.595 14.848l-.328-1.101c-3.983-4.863-3.403-9.909-.529-15.111 2.202-3.516 4.551-4.866 7.933-7.078" fill="#bc8204"/><path d="m175.99 590.44 1.351.681.317-.394c3.31-4.05 12.113-15.61 17.954-8.212 6.662 8.438-8.666 20.347-17.657 15.053-1.19-2.577-2.488-4.476-1.965-7.128" fill="#e3a60e"/><path d="M181.873 577.063c.75 1.101 1.304 1.909 2.14 2.961-1.78 2.918-3.896 3.285-6.912 6.321l-1.111 4.095c-.523 2.652.775 4.551 1.965 7.128l-3.486 1.684c-3.983-4.863-3.403-9.909-.529-15.111 2.202-3.516 4.551-4.866 7.933-7.078" fill="#a7750c"/><path d="m200.44 589.149.952-3.644c3.122 20.408-24.293 23.333-26.595 14.848 12.237 4.597 20.836.982 25.643-11.204" fill="#fee581"/><path d="M228.109 593.988a6.162 6.162 0 1 1 4.728 11.383 6.162 6.162 0 0 1-4.728-11.383" fill="#e3a60e"/><path d="M213.7 551.168c3.65.131 5.967.635 7.001 4.254-1.233 2.771-.618 1.788-3.51 3.877-3.352-.267-5.411.015-6.928-3.3.506-2.515 1.525-3.072 3.437-4.831" fill="#f8be29"/><path d="M188.79 621.778c3.536.485 5.425.319 7.078 3.789-1.104 2.782-.646 1.835-3.611 4.025-3.25.1-5.429.644-6.955-2.716.472-2.722 1.421-3.201 3.488-5.098" fill="#e3a60e"/><path d="M162.803 604.331c3.532 2.948 2.858 5.968 1.084 9.967-1.903-4.818-2.808-5.585-1.084-9.967" fill="#f8be29"/><path d="M562.494 154.446c5.311-5.349 13.605-11.493 19.644-3.765 3.031 3.88 3.131 8.114 4.9 12.538 5.22 3.651 10.178 8.91 14.631 13.395 14.953 15.162 36.467 23.398 57.7 22.388 8.738-.416 18.904-2.002 20.792 9.299 1.547 9.262-9.045 15.723-15.469 20.363-36.467 26.34-94.86 6.257-100.328-40.362-.884-7.442 2.577-16.452-.412-22.723-2.058-4.692-2.922-6.086-1.458-11.133" fill="#523b01"/><path d="M583.73 165.315c6.756 6.123 13.247 13.441 19.801 19.034a82.9 82.9 0 0 0 58.874 19.461c1.076 1.908.847 2.323.603 4.633l-.013.647c.35 1.956.818 5.214 1.486 6.965-14.769 6.066-26.798 9.275-43.188 6.096-2.407-.467-10.955-3.466-12.195-3.526l-13.542-8.411c-.288-.556-3.765-4.194-4.545-5.066-9.633-10.767-14.46-19.658-15.968-34.197a487 487 0 0 0 7.054-3.961z" fill="#fed03d"/><path d="M583.73 165.315c6.756 6.123 13.247 13.441 19.801 19.034a82.9 82.9 0 0 0 58.874 19.461c1.076 1.908.847 2.323.603 4.633-12.034 1.543-23.614 2.626-35.299-1.286-18.209-3.866-30.896-18.285-41.586-32.434-2.333-3.235-2.618-3.972-4.026-7.733z" fill="#fedc5e"/><path d="M586.123 174.723c10.69 14.149 23.377 28.568 41.586 32.434 1.301 1.308 1.494 1.306 2.019 3.121-2.098.76-7.302-1.585-9.606-2.138-9.664-2.321-34.909-22.932-33.999-33.417" fill="#fed03d"/><path d="m574.533 170.648.51.303c1.508 14.539 6.335 23.43 15.968 34.197.78.872 4.257 4.51 4.545 5.066l13.542 8.411c1.24.06 9.788 3.059 12.195 3.526 16.39 3.179 28.419-.03 43.188-6.096l.553.044c.892 1.291 1.988 2.982 2.995 4.118a54 54 0 0 1-3.623 3.178c-33.044 26.35-89.365 8.66-95.528-35.033-.824-5.843-.069-10.9.639-16.678.711-.363 4.056-.865 5.016-1.036" fill="#f8be29"/><path d="m595.556 210.214 13.542 8.411c-4.735 2.75-13.119-2.885-13.542-8.411" fill="#e2a40e"/><path d="M566.196 156.54c3.238-3.82 8.933-7.229 13.529-3.602.906 4.57 1.866 8.18 4.005 12.377l-1.633 1.675q-3.51 2.01-7.054 3.961l-.51-.303c-.96.171-4.305.673-5.016 1.036-.174-1.949-.679-4.374-1.029-6.341l-.545-.333c-.861-2.319-1.646-4.864-2.428-7.229z" fill="#a7750c"/><path d="M566.196 156.54c3.238-3.82 8.933-7.229 13.529-3.602-3.365 3.57-4.621 5.222-9.596 6.138l-.145-.119c-.079-1.886-.226-.926.991-2.845.706-.272-3.663.182-4.779.428" fill="#806334"/><path d="M566.196 156.54c1.116-.246 5.485-.7 4.779-.428-1.217 1.919-1.07.959-.991 2.845l.145.119 2.077 4.394-3.718 1.873-.545-.333c-.861-2.319-1.646-4.864-2.428-7.229z" fill="#6a4c16"/><path d="M572.206 163.47c.942 2.588 1.588 4.5 2.327 7.178-.96.171-4.305.673-5.016 1.036-.174-1.949-.679-4.374-1.029-6.341z" fill="#806334"/><path d="M672.256 202.983c8.273 8.948 1.96 11.52-4.227 17.234-1.007-1.136-2.103-2.827-2.995-4.118l-.553-.044c-.668-1.751-1.136-5.009-1.486-6.965 1.022-.595 5.291-1.405 7.277-2.084l2.081-2.781z" fill="#6a4c16"/><path d="m670.272 207.006 1.584 5.793c-2.518.999-4.662 1.667-6.822 3.3l-.553-.044c-.668-1.751-1.136-5.009-1.486-6.965 1.022-.595 5.291-1.405 7.277-2.084" fill="#806435"/><path d="M672.353 204.225c1.07 2.367 2.813 6.013 1.707 8.512-1.16.167-1.189.338-2.204.062l-1.585-5.793z" fill="#593e05"/><path d="m562.494 154.446 3.021 3.335c.782 2.365 1.566 4.91 2.427 7.229-2.421 1.274-1.355 1.131-3.99.569-2.058-4.692-2.922-6.086-1.458-11.133" fill="#483201"/><path d="M662.405 203.81c.637-.282 8.609-.744 9.851-.827l.097 1.242-2.081 2.781c-1.986.679-6.255 1.489-7.277 2.084l.013-.647c.244-2.31.473-2.725-.603-4.633" fill="#a7750c"/><path d="M1071.1 585.353c6.01 1.84 6.57 13.373 8.11 19.227 4.59 1.523 11.58 2.598 13.73 7.006l-.9 1.708c-3.04 2.593-8.35 3.8-12.3 5.011-2.15 5.884-3.03 14.562-6.61 19.129-5.47-1.683-6.16-12.977-8.46-18.453l-.34-.782c-4.18-1.18-9.31-2.139-12.53-4.853-2.35-5.272 9.25-7.473 13.31-8.94 2.14-6.063 2.68-13.905 5.99-19.053" fill="#fedc5e"/><path d="M403.004 451.028c4.768 1.873 5.619 10.681 6.977 15.506q1.965.496 3.921 1.03c2.861.788 5.003 1.139 6.498 3.769l-.608 1.539c-2.556 2.162-6.394 2.84-9.724 3.729-1.354 5.02-2.554 9.927-4.522 14.748-4.835-1.127-5.571-10.03-7.271-14.793q-2.023-.5-4.036-1.039c-2.934-.792-4.756-1.047-6.286-3.694l.59-1.61c2.411-2.148 6.654-2.79 9.925-3.578 1.414-5.397 2.645-10.341 4.536-15.607m254.09-70.407c4.066 2.351 4.738 10.426 5.816 14.965 3.412 1.046 8.126 1.98 10.243 4.636l-.324 1.474c-2.401 2.281-6.44 3.105-9.721 4.073-1.374 4.48-2.249 11.014-4.728 14.718-3.627-1.875-4.818-10.732-5.705-14.539-3.847-1.089-8.073-1.707-10.408-4.809l.374-1.567c2.422-2.272 6.625-3.103 9.927-4.049 1.11-4.61 2.026-11.225 4.526-14.902" fill="#fed03d"/><path d="M141.962 576.167c2.33.691 3.083.465 5.571.264-3.764 7.124-7.908 13.87-9.23 21.807-.627 8.382-.52 13.208 2.966 21.032l1.979 3.228c-1.617 1.613-2.052 1.518-4.42 1.974-11.594-15.684-4.823-33.064 3.134-48.305" fill="#523b01"/><path d="M763.083 113.001a7.785 7.785 0 1 1 1.535 15.494 7.783 7.783 0 0 1-8.423-6.988 7.785 7.785 0 0 1 6.888-8.506M69.824 535.247a7.77 7.77 0 0 1 9.564 5.378 7.768 7.768 0 1 1-14.955 4.213 7.77 7.77 0 0 1 5.391-9.591m1118.806 16.522c4.13-.59 7.99 2.2 8.73 6.311.73 4.111-1.92 8.066-6 8.946a7.75 7.75 0 0 1-8.89-10.3 7.74 7.74 0 0 1 6.16-4.957m-589.829 366.84a7.73 7.73 0 0 1 9.522 5.137 7.735 7.735 0 0 1-4.935 9.63 7.73 7.73 0 0 1-9.978-9.094 7.73 7.73 0 0 1 5.391-5.673M325.036 809.086a7.73 7.73 0 1 1-4.003 13.104 7.73 7.73 0 0 1 4.003-13.104m1118.824-33.712a7.65 7.65 0 0 1 8.3 6.755 7.656 7.656 0 0 1-13.72 5.489 7.64 7.64 0 0 1-.89-7.715 7.65 7.65 0 0 1 6.31-4.529M770.257 963.695a7.636 7.636 0 0 1 8.981 5.801 7.636 7.636 0 1 1-14.725-.636 7.63 7.63 0 0 1 5.744-5.165M515.136 322.953a7.622 7.622 0 1 1 4.958 14.413 7.621 7.621 0 0 1-4.958-14.413m925.034 3.862a5.62 5.62 0 0 1 7.35 2.792 5.62 5.62 0 0 1-2.63 7.409c-1.83.895-4 .73-5.67-.432a5.6 5.6 0 0 1-2.39-5.165 5.63 5.63 0 0 1 3.34-4.604M992.402 722.817a5.457 5.457 0 1 1 3.97 10.16 5.457 5.457 0 0 1-3.97-10.16M596.499 64.971a5.323 5.323 0 1 1 3.36 10.101 5.323 5.323 0 0 1-3.36-10.1m-82.186 437.323a4.982 4.982 0 1 1-.758 8.644 4.983 4.983 0 0 1 .758-8.644" fill="#fee581"/><path d="M681.797 287.764a4.91 4.91 0 0 1 6.505 1.969 4.913 4.913 0 0 1-1.694 6.584 4.908 4.908 0 0 1-7.494-4.299 4.91 4.91 0 0 1 2.683-4.254" fill="#fedc5e"/><path d="M879.904 111.44a4.902 4.902 0 0 1 4.163 8.875 4.902 4.902 0 0 1-4.163-8.875" fill="#fed03d"/><path d="M1500.3 669.537a4.853 4.853 0 0 1 6.56 2.015 4.85 4.85 0 0 1-2 6.568 4.858 4.858 0 1 1-4.56-8.583m-636.191-3.002a4.838 4.838 0 0 1 6.78 5.145 4.84 4.84 0 1 1-6.78-5.145" fill="#fee581"/><path d="M761.934 753.605a4.788 4.788 0 1 1-2.729 7.943 4.788 4.788 0 0 1 2.729-7.943" fill="#fedc5e"/><path d="M700.756 824.104a4.727 4.727 0 1 1 1.723 9.296 4.727 4.727 0 0 1-1.723-9.296M337.883 650.18a4.69 4.69 0 1 1-3.102 7.686 4.69 4.69 0 0 1 3.102-7.686m339.592 16.461a4.659 4.659 0 1 1 .921 9.272 4.659 4.659 0 0 1-.921-9.272" fill="#fed03d"/><path d="M273.104 426.539a4.65 4.65 0 1 1 2.742 8.862 4.648 4.648 0 0 1-2.742-8.862" fill="#fedc5e"/><path d="m147.928 566.841 3.356 4.109-3.751 5.481c-2.488.201-3.241.427-5.571-.264 2.123-4.28 3.014-5.518 5.966-9.326" fill="#483201"/></g></g><defs><clipPath id="d"><path fill="#fff" d="M0 0h1536v1024H0z"/></clipPath><filter id="a" x="-7" y="-7" width="1550" height="1038" filterUnits="userSpaceOnUse" color-interpolation-filters="sRGB"><feFlood flood-opacity="0" result="BackgroundImageFix"/><feBlend in="SourceGraphic" in2="BackgroundImageFix" result="shape"/><feGaussianBlur stdDeviation="3.5" result="effect1_foregroundBlur_10714_2736"/></filter></defs></svg>