<svg width="1024" height="1024" viewBox="0 0 1024 1024" fill="none" xmlns="http://www.w3.org/2000/svg"><g clip-path="url(#a)"><path d="M319.545 521.22c-4.731-10.411-10.202-21.996-14.019-32.75a265.36 265.36 0 0 1-10.484-134.809c16.039-89.23 72.669-166.935 146.559-217.892a366.16 366.16 0 0 1 274.49-56.252c95.954 17.587 173.885 67.218 229.305 147.496 2.33 4.038 4.838 7.969 7.313 11.921l9.158 16.224 3.552 7.173 6.379 13.983 3.724 9.394 5.071 13.907c10.96 37.19 18.158 68.694 17.278 108.065 50.859 55.488 25.929 173.49-56.242 184.431-6.474 21.731-11.637 34.964-27.805 50.905 2.191 11.46 2.478 19.331-4.54 29.707a42.95 42.95 0 0 1-14.523 13.173l-1.104.625-.671.362c-.848 32.689-28.703 54.314-58.528 60.54-4.144.864-8.373 1.479-12.467 2.348l-.561.776c-5.231 7.304-9.572 16.313-14.601 24a434.5 434.5 0 0 1-38.435 49.531c-68.73 77.497-181.63 131.762-282.751 149.174a456.3 456.3 0 0 1-342.613-78.247 334.3 334.3 0 0 1-81.627-82.23c-7.386-10.582-13.213-21.98-20.59-32.399-4.42-5.463-10.87-10.872-16.129-15.413-32.38-27.962-30.4-69.581-7.046-102.439 23.101-32.502 53.811-24.876 86.782-16.038 3.09.829 9.794 2.551 12.8 2.808 44.247 10.969 117.776-4.953 161.073-18.059-6.213-16.434-6.555-29.19 3.767-44.369 2.312-3.922 7.765-8.771 9.839-12.526 7.027-12.72 10.792-17.133 22.902-25.483-.368-9.875 2.152-18.27 4.744-27.637" fill="#fcfcfc"/><path d="M632.978 76.273c4.742-.42 10.34-.397 15.145-.365 190.144 1.268 347.055 136.999 346.778 332.567 38.659 40.228 32.279 113.331-3.221 153.682-14.466 16.441-31.594 23.972-53.236 25.901-2.708 21.35-13.087 37.872-27.38 53.1 3.467 19.76-2.155 33.292-20.705 42.334-2.234 19.069-5.527 29.989-20.847 43.064-15.136 12.917-30.551 15.833-49.518 19.369-5.838 8.798-10.964 18.932-17.268 28.33a399.4 399.4 0 0 1-82.467 90.059c-104.515 83.542-237.938 122.214-370.963 107.522a474 474 0 0 1-141.99-43.677c-61.828-29.787-117.535-74.628-152.574-133.923-2.751-4.658-6.906-12.316-10.27-16.161-13.115-14.985-31.27-25.526-37.404-45.799-6.04-19.152-1.848-39.426 6.957-56.985 31.013-61.847 83.213-18.858 131.571-19.299 46.217-.422 94.662-8.971 138.383-23.336a94 94 0 0 1-1.831-3.751 42.65 42.65 0 0 1-.988-32.878c1.474-3.743 4.281-9.122 7.297-11.942 15.741-14.721 9.218-23.05 31.326-33.014-2.129-8.547 1.854-23.143 4.447-31.238-3.031-8.21-8.256-16.759-11.552-25.284-41.89-108.31-5.998-218.034 68.432-301.909a331 331 0 0 1 51.339-46.135c61.211-45.301 125.089-65.7 200.539-70.232" fill="#291e21"/><path d="M295.46 646.892c3.623 2.998 7.25 5.886 10.589 9.198l.467.104c3.408 2.454 6.603 4.737 9.863 7.391 15.758 11.987 32.189 23.698 49.805 32.814 2.066 1.068 12.287 5.945 12.781 6.815-2.331.417-3.308.507-5.686.649l-.631.949c-1.766.297-12.166 1.792-12.698 2.475l.887.19c2.009.441 3.298.467 4.762 1.831.877 2.902 1.64 4.821 2.814 7.625l1.615.246-.348.669c-6.42.484-16.798 3.535-23.826 4.88.051.363-.01.784.208 1.075 8.856-.714 17.899-3.09 26.553-5.03 12.832-2.877 19.181-8.305 32.087-3.815l7.318 2.402c54.972 19.836 107.048 33.6 165.563 36.999 15.422.896 30.896.717 46.39 1.939 8.121.641 19.692-.718 27.734 1.445 2.736-.351 4.264-.994 6.574-.078 1.135 2.016.774 3.352 1.377 4.392l3.949-5.05c36.244.53 81.728-5.021 117.389-11a328 328 0 0 0 16.222-2.972C678.075 943.399 378.704 1014.93 181.746 893.192c-41.401-25.588-86.129-62.372-110.202-105.383-3.557-4.699-6.27-10.608-9.724-15.571-9.276-13.334-18.088-21.295-30.602-31.071 14.437-2.165 17.69-3.987 30.538-11.098 13.415-9.674 18.609-15.52 24.037-31.187.687-3.423 1.239-7.54 1.791-11.043l.223-7.059c-.702-2.757-1.208-5.561-1.758-8.354-1.263-3.637-3.466-8.068-5.13-11.659 20.97 5.787 36.218 10.457 58.301 10.606 53.783.364 105.114-9.025 156.24-24.481" fill="#fee60c"/><path d="M412.02 717.892c54.972 19.791 107.048 33.525 165.563 36.916 15.422.894 30.896.715 46.39 1.934 8.121.639 19.692-.716 27.734 1.443 2.736-.351 4.264-.993 6.574-.079 1.135 2.012.774 3.344 1.377 4.382l3.949-5.039c36.244.53 81.728-5.009 117.389-10.974a328 328 0 0 0 16.222-2.966C678.075 943.42 378.704 1014.79 181.746 893.327c-41.401-25.53-86.129-62.231-110.202-105.145-3.557-4.688-6.27-10.584-9.724-15.536-9.276-13.303-18.088-21.247-30.602-31 14.437-2.16 17.69-3.979 30.538-11.073 24.359 7.978 23.463 12.523 37.89 32.797a270 270 0 0 0 15.274 19.235c32.074 36.972 75.644 63.382 121.064 80.529 6.473 2.444 11.969 4.053 18.815 4.819 8.087-2.257 40.142 8.926 50.609 9.266 2.939.097 12.66 2.614 15.609 3.852 2.398-.244 9.379-.188 11.288.938 4.232.28 8.956.496 13.112 1.007 3.88-.385 14.563-.157 18.797-.117 16.299.153 28.487.223 44.682-2.466 6.073-1.45 13.831-2.393 20.17-3.459a925 925 0 0 0 26.271-5.054c5.309-1.358 10.541-3.137 15.755-4.834 6.588-2.809 17.127-6.066 24.219-8.504 1.178-.739 2.251-1.498 3.393-2.288l3.759.098c5.22-3.441 12.699-6.249 18.592-8.727-2.245-1.362-2.655-1.046-3.309-2.954 8.782-6.183 19.106-16.556 28.355-22.482 10.353-6.633 53.011-40.658 54.341-50.018-2.443-2.7-13.838-3.259-17.509-3.287-54.689-.406-107.461-16.163-157.198-37.875-5.205-2.271-10.224-5.814-15.854-7.66l-.242-2.889c.91-1.136 1.336-1.591 2.381-2.608" fill="#d99c02"/><path d="M797.218 742.892c-119.197 200.5-418.702 272.078-615.749 150.26-41.42-25.606-86.167-62.415-110.251-105.456l.952-.242c4.382 5.23 9.253 13.543 13.692 19.557 41.246 55.884 102.828 95.024 167.277 118.941 7.825 2.904 27.731 9.895 35.301 11.01 2.355-.732 8.911-6.578 9.132-8.933-2.999-1.619-6.433-1.778-9.75-2.661-16.447-4.38-32.353-10.199-48.188-16.39A383.8 383.8 0 0 1 107.929 821.2c-6.45-6.63-18.38-21.351-25.111-29.191l.351-.948c14.45 16.277 27.647 33.272 44.304 47.415 8.565 7.272 16.992 14.36 26.034 21.055a414.5 414.5 0 0 0 239.31 79.973c126.558 2.681 248.911-45.492 339.695-133.746 8.691-8.448 48.34-50.949 48.477-59.892a328 328 0 0 0 16.229-2.974" fill="#fee60c"/><path d="M652.204 757.442c2.758-.352 4.298-.996 6.626-.079 1.144 2.018.78 3.356 1.388 4.397-9.607 15.481-76.964 65.387-98.391 72.106-.945.298-2.151-2.062-2.609-3.175 1.055-2.691 2.13-2.79 4.664-4.65 7.168-5.256 18.218-10.164 25.232-14.746 17.145-11.198 52.327-35.667 62.542-52.919z" fill="url(#b)"/><path d="M255.218 868.186c8.06-2.208 40.01 8.731 50.442 9.063 2.93.094 12.618 2.557 15.558 3.767l-.902 2.073c-6.755 3.858-48.021-7.296-57.437-9.822-3.153-.847-5.83-2.356-7.661-5.081m200.023 3.706c2.316 1.388 2.174.819 2.977 2.772-3.65 5.609-39.211 9.477-46.773 9.216-2.014-1.47-1.394-1.129-2.227-4.018 6.018-1.358 13.706-2.241 19.989-3.239a968 968 0 0 0 26.034-4.731m66.843-24.994c5.496-2.383 16.638-8.367 21.906-7.989l1.228 1.002c-.551 7.087-32.314 18.507-39.111 19.967-1.225.264-2.546-3.328-2.889-4.195 5.297-3.464 12.886-6.291 18.866-8.785m-27.092 10.994 2.226 2.979c-.696 7.163-16.827 9.589-22.164 8.912-.889-.112-3.045-1.987-3.836-2.673 6.467-3.045 16.812-6.576 23.774-9.218m-162.774 24c4.195.284 8.879.503 13 1.02l-.351 1.05c-4.267 3.757-10.966 4.717-12.649-2.07" fill="#7f4f00"/><path d="m661.483 793.892.735.806c-1.241 6.375-5.968 11.489-12.013 13.194-.749-.477-.352-.126-.987-1.251.698-6.206 7.021-10.7 12.265-12.749" fill="#ebbd07"/><path d="M295.726 646.892c3.622 3.013 7.248 5.915 10.587 9.243l.467.105c3.407 2.465 6.602 4.759 9.862 7.426 15.755 12.046 32.184 23.813 49.797 32.974 2.065 1.074 12.286 5.974 12.779 6.849-2.33.419-3.307.509-5.685.651l-.631.954c-1.766.299-12.164 1.801-12.696 2.487l.887.191c2.009.444 3.297.469 4.761 1.84.877 2.917 1.64 4.845 2.813 7.662l1.615.248-.347.671c-6.419.487-16.796 3.553-23.822 4.905.05.364-.011.787.207 1.08-6.352 1.833-28.08 3.803-35.027 3.832-12.886 1.673-51.505.628-64.587-.357-16.925-1.333-38.982-4.21-55.406-8.602-7.326-1.066-18.934-5.427-26.027-8.051-1.552-1.094-7.575-3.767-9.527-4.676-10.277-4.794-16.181-7.42-24.701-14.869-3.179-1.344-4.107-3.39-5.728-6.17 1.875-.414 3.711-.396 4.594-1.562-3.003.032-3.888-.088-6.852-.645l.024-.879c-5.036-2.388-27.912-7.624-34.505-10.197l-2.231.548c-1.264-3.655-3.466-8.107-5.13-11.715 20.966 5.815 36.212 10.507 58.293 10.658 53.774.365 105.098-9.07 156.216-24.601" fill="#fee60c"/><path d="M295.635 646.892c3.62 3.032 7.245 5.953 10.583 9.302-1.04.614-9.719 3.194-11.96 3.967-35.338 12.18-64.048 17.786-100.852 22.376-5.569 5.046-54.824 1.195-58.402 2.939-1.189 2.485-.925 5.349 1.44 6.989l-.245.427c-2.302-.832-2.642-1.029-5.176-1.152-3.177-1.352-4.104-3.412-5.725-6.209 1.875-.417 3.709-.399 4.592-1.573-3.002.032-3.886-.088-6.848-.649l.024-.885c-5.035-2.402-27.9-7.672-34.492-10.262l-2.23.552c-1.262-3.678-3.464-8.159-5.126-11.79 20.956 5.853 36.196 10.575 58.267 10.726 53.751.368 105.053-9.128 156.15-24.758" fill="#fefecf"/><path d="M123.242 682.892c29.571 2.971 40.982 1.274 69.976.107-5.54 4.821-54.541 1.142-58.1 2.809-1.183 2.373-.92 5.109 1.433 6.676l-.243.408c-2.291-.794-2.63-.983-5.15-1.101-3.16-1.291-4.083-3.259-5.695-5.932 1.865-.397 3.69-.381 4.568-1.502-2.987.031-3.866-.084-6.813-.62z" fill="#fef75f"/><path d="M132.218 691.892c2.518.121 2.857.315 5.146 1.131 8.267 4.626 21.2 7.323 30.473 9.718 49.811 12.872 95.456 14.122 146.381 10.683-3.312 2.161-6.197 1.868-10.106 2.067l-.119.553 1.951 1.565c-.616 5.185-8.938 6.858-7.292 9.427 3.814 1.521 9.525-1.097 12.572.198l.111.786c-12.804 1.654-51.181.621-64.181-.353-16.819-1.317-38.738-4.16-55.059-8.501-7.28-1.054-18.815-5.364-25.864-7.958-1.542-1.081-7.527-3.722-9.467-4.621-10.213-4.738-16.08-7.333-24.546-14.695" fill="url(#c)"/><path d="m192.218 718.592 1.426-.7c15.018 2.844 29.96 5.939 45.156 7.397 3.586.344 7.433.767 10.988 1.365l.43.624q-2.106.294-4.209.614c-16.431-1.441-37.846-4.551-53.791-9.3M364.77 704.87c2.465-.011 4.697-1.059 8.448-.973l-.638.959c-1.784.3-12.289 1.81-12.827 2.5l.896.192c2.029.446 3.331.471 4.81 1.849.886 2.933 1.657 4.871 2.843 7.703l1.631.249-.351.675c-6.485.489-16.969 3.571-24.069 4.93.052.366-.01.792.21 1.086-6.418 1.842-28.371 3.822-35.391 3.852l-.113-.799c-3.098-1.317-8.904 1.345-12.783-.202-1.673-2.613 6.788-4.315 7.415-9.588l-1.984-1.593.121-.562c3.975-.202 6.908.096 10.275-2.103 20.922-2.03 30.915-3.579 51.507-8.175" fill="#7f4f00"/><path d="M316.502 663.892c15.79 11.917 32.256 23.56 49.909 32.623 2.069 1.062 12.312 5.91 12.807 6.775-2.335.415-3.315.504-5.698.645-3.72-.085-5.934.946-8.379.957-2.031-1.656-8.577-5.162-11.276-6.795-13.481-8.157-25.005-17.234-36.675-27.831-1.023-2.746-2.399-2.43-2.972-5.043z" fill="url(#d)"/><path d="M306.218 656.892c3.23 2.489 6.258 4.804 9.348 7.497l-2.16 1.357c.542 2.667 1.844 2.344 2.812 5.146-6.219-3.258-9.159-6.645-10-14" fill="#ebbd07"/><path d="M298.004 671.892c10.649.721 13.376 10.027 1.146 12.922-3.551.146-5.285.298-8.03-1.651-3.037-5.75 2.186-8.988 6.884-11.271" fill="#f8f589"/><path d="M165.886 710.892c7.083 2.57 18.674 6.842 25.99 7.886 16.4 4.302 38.425 7.12 55.326 8.425 13.063.965 51.626 1.989 64.493.35 6.937-.029 28.634-1.958 34.976-3.753 8.843-.703 17.871-3.042 26.511-4.951 12.812-2.832 19.15-8.174 32.036-3.755-4.985 6.312-12.436 11.102-19.327 15.157-6.55 4.055-18.47 6.347-26.186 7.859-59.779 11.708-120.96 7.079-180.049-4.918-10.216 3.148-19.618 8.652-30.745 8.389-5.21-.123-10.386-2.068-9.617-8.194 1.01-8.04 14.418-8.237 20.392-10.864 2.788-1.225 4.638-2.395 7.156-4.024-.317.172 4.63-4.572 4.45-4.113-1.874-.991-3.424-1.721-5.361-2.591z" fill="#fefecf"/><path d="m85.479 672.443 2.267-.551c6.703 2.586 29.957 7.848 35.077 10.247l-.024.884c3.012.56 3.911.68 6.965.648-.899 1.172-2.764 1.154-4.67 1.57 1.648 2.794 2.591 4.85 5.822 6.201 8.661 7.486 14.662 10.124 25.11 14.942 1.984.914 8.106 3.6 9.684 4.699l.046.926c1.972.893 3.549 1.642 5.457 2.659.183-.472-4.852 4.396-4.53 4.219-1.268-.54-2.985-.553-4.836-1.189a212 212 0 0 1-20.879-8.318c-12.762-6.385-32.396-19.372-45.953-19.857.072 3.24-.041 5.063-.36 8.296l.073 1.763c-2.873 1.018-4.184.277-6.987-.659-1.438.666-.693.418-2.523.237.698-3.457 1.26-7.615 1.82-11.152l.227-7.128c-.713-2.785-1.228-5.616-1.786-8.437" fill="#f8f589"/><path d="M87.512 681.892c.973 1.603 1.704 2.849 3.727 3.429 3.468.996 3.533 3.864 4.955 5.128.081 3.208-.045 5.012-.403 8.212l.082 1.746c-3.218 1.008-4.687.274-7.828-.652-1.61.659-.776.413-2.827.234.782-3.422 1.411-7.538 2.04-11.04z" fill="#fef75f"/><path d="M95.575 689.892c13.449.478 32.927 13.273 45.586 19.564.81 1.815.818 1.754 1.057 3.712-5.624 4.035-37.701 3.793-43.969-2.114-3.082-2.904-2.92-7.584-2.958-11.251l-.073-1.737c.316-3.185.428-4.981.357-8.174m403.643 165.9c3.824-4.416 13.248-9.973 18.743-11.9.643 1.96 1.047 1.635 3.257 3.035-5.801 2.545-13.162 5.43-18.3 8.965z" fill="#ebbd07"/><path d="M176.624 746.892c10.766.381 16.061 10.679 2.465 15-13.003-1.216-12.458-9.361-2.465-15" fill="#fefecf"/><path d="M541.747 773.12c2.232-.458 3.609-.308 5.241 1.216 1.803 7.807-7.432 11.224-13.254 12.556-2.81-.365-4.318-.695-6.332-2.693-1.744-6.675 9.355-10.129 14.345-11.079" fill="#fef75f"/><path d="M368.868 747.892c8.217.723 13.564 12.71.352 15-3.51-.044-5.586.062-8.287-2.2-2.833-6.083 3.358-10.031 7.935-12.8" fill="#fefecf"/><path d="M513.262 781.993c3.864-.131 5.864-.619 7.956 2.777.005 6.556-6.9 8.793-12.003 10.122-2.873-.431-4.859-1.041-6.849-3.109-1.312-6.083 6.405-8.376 10.896-9.79" fill="#fef75f"/><path d="M393.325 745.315c3.335-1.219 7.111.288 8.433 3.366s-.308 6.565-3.642 7.786c-3.337 1.223-7.115-.284-8.439-3.364s.311-6.568 3.648-7.788" fill="#f8f589"/><path d="M659.359 214.892c4.004 1.512 7.866 3.46 11.73 5.311 4.792 1.981 7.602 3.469 12.161 6.005 8.498 4.897 17.516 10.323 24.78 16.947 1.466 4.464 2.743 8.512 3.977 13.043 1.15-2.73.378-4.012-.51-7.209 4.915-.266 10.68 4.86 14.705 7.604 21.442 15.467 53.498 46.078 66.531 69.305 7.796 13.894 15.315 45.692 18.111 62.384 6.733 40.205 4.814 101.132-18.995 135.679-7.307 10.601-17.693 19.551-27.61 27.549-28.643 23.105-58.305 32.926-93.327 41.405-4.827.868-10.409 2.016-15.209 2.665-15.656 2.964-38.241 4.126-54.236 4.251a465.9 465.9 0 0 1-174.504-30.886c-12.465-4.782-29.385-11.761-40.474-18.85-3.117-1.794-3.703-2.439-6.271-5.006a82 82 0 0 1 2.256-7.678c24.156-69.021 61.828-134.136 106.991-191.49 26.253-33.338 56.108-63.24 91.811-86.273 8.569-5.528 16.742-11.269 25.826-15.898 6.859-5.265 44.384-25.795 52.257-28.858" fill="#fee60c"/><path d="M682.511 226.892c8.546 4.887 17.615 10.303 24.92 16.914 1.474 4.456 2.758 8.496 3.999 13.018 1.158-2.724.381-4.004-.512-7.195 4.943-.266 10.74 4.85 14.788 7.589 21.563 15.437 53.8 45.989 66.906 69.171 7.84 13.868 15.401 45.604 18.213 62.265 6.771 40.127 4.841 100.937-19.102 135.417-7.348 10.581-17.793 19.513-27.766 27.496-28.804 23.061-58.634 32.862-93.853 41.325l-.886-1.653c4.49-5.976 17.824-29.524 16.656-36.553-1.741-2.176-3.792-2.619-6.464-3.657.754-1.057 5-9.693 5.801-11.277 1.256-3.73 3.127-8.383 4.688-12.013 6.181-14.381 10.274-29.756 16.034-44.204.632-1.729 2.12-7.991 2.661-10.05 5.984-23.988 9.505-50.855 15.35-74.489.447-8.153.679-16.739 1.457-24.818-1.387-11.716-3.004-22.072-5.015-33.711-4.909-30.641-21.766-52.682-40.427-75.907l3.262 1.857.564-.348c-2.763-8.753-4.233-23.073-3.924-32.255.131-3.881.096-4.637 2.65-6.922" fill="url(#e)"/><path d="M723.943 398.892c7.438 7.742-5.368 67.907-9.827 79-2.354-1.219-4.693-2.046-5.898-4.275 6.131-24.064 9.737-51.016 15.725-74.725m-17.404 85c1.886.778 3.367 3.117 4.679 4.79-1.135 9.562-12.641 48.694-19.398 53.912-3.525.943-4.94-.386-6.602-3.468 1.292-3.664 3.217-8.236 4.823-11.802 6.36-14.13 10.572-29.237 16.498-43.432m13.679-144.156c1.737-3.392 3.65-8.185 8.223-6.492 5.007 6.723 1.766 24.186 1.508 32.484-.114 3.682-1.095 6.454-4.551 8.164-1.433-11.87-3.103-22.363-5.18-34.156" fill="#7f4f00"/><path d="M711.703 256.043c1.096-2.704.36-3.974-.485-7.141 4.68-.264 10.168 4.814 14 7.533-.418 3.163-1.677 9.477-4.681 10.912-6.433 3.071-7.994-7.67-8.834-11.304" fill="#4e2d05"/><path d="M765.187 514.94c17.845-1.033 13.842 14.979.959 20.54-15.63 3.332-15.848-14.456-.959-20.54" fill="#f8f589"/><path d="m718.091 279.892 2.638.491c4.479 3.253 7.877 32.254 5.926 37.509-1.091-.063-2.056-.258-3.143-.431-5.377-4.166-7.704-30.917-5.421-37.569" fill="#7f4f00"/><path d="M606.554 243.608c3.699-.577 7.535-2.073 10.458-1.638 3.043 2.234 3.155 5.039 3.206 8.627-4.787 10.344-17.489 14.391-26.681 20.527-10.427 6.958-20.552 13.997-30.171 22.076-3.765 2.611-7.823 6.6-10.937 9.994-15.279 14.866-29.23 29.884-39.36 48.669-1.369 2.536-3.293 5.304-4.888 7.736-5.746-2.107-7.304-.094-10.124 4.968l-.504.715c-6.613 9.234-15.33 17.985-21.998 27.32-15.197 21.268-27.586 41.759-40.151 64.659-12.106 22.063-24.668 44.674-33.134 68.521-2.157 3.342-14.335 23.058-15.796 24.11-3.109-1.793-3.694-2.438-6.256-5.004a82 82 0 0 1 2.25-7.677c24.098-69.007 61.679-134.11 106.733-191.452 26.189-33.331 55.973-63.228 91.589-86.256 8.549-5.526 16.702-11.267 25.764-15.895" fill="url(#f)"/><path d="M552.315 302.907c3.093-3.401 7.125-7.398 10.867-10.015 2.085 3.727.834 7.483-2.078 10.508l-.264 1.038c-1.559 6.257-1.842 12.126.357 18.334l2.635 2.461c-.301 4.197-9.425 7.251-12.558 8.91-15.186 8.036-23.658 18.83-32.746 32.882-2.451 3.791-10.256 1.703-11.962 8.309-4.359 6.184-2.861 9.985-8.022 16.716-11.982 2.755-21.796 11.39-26.135 22.994-4.806 5.769-.912 5.928-3.031 9.874-1.965-.729-2.787-1.6-4.696-.378l-1.045-3.77-.775-.057c-.938 5.542-.489 13.234-1.148 18.97-.038.319-2.197 2.418-2.651 2.835 2.052 11.909 3.009 6.904 2.883 21.296-4.911 3.55-10.424 5.352-14.997 8.317-8.857 5.759-16.79 20.164-18.635 30.394-2.517 13.949 10.403 26.533-11.125 32.18-4.707 1.234-10.913 8.105-14.826 3.768-1.037-4.902 3.913-8.061.75-12.514 8.412-23.897 20.894-46.555 32.922-68.664 12.485-22.948 24.796-43.481 39.896-64.794 6.625-9.354 15.287-18.123 21.857-27.377l.501-.717c2.802-5.072 4.35-7.089 10.06-4.978 1.585-2.437 3.496-5.21 4.856-7.752 10.065-18.824 23.928-33.873 39.11-48.77" fill="#fef75f"/><path d="M499.218 364.927c2.786-5.271 4.324-7.368 10-5.174-1.223 5.153-1.126 8.132-6.7 8.139-2.729-1.371-1.72-1.684-3.3-2.965" fill="#f8f589"/><path d="M507.54 390.894c16.156.141 30.353 10.896 35.067 26.561 4.712 15.666-1.151 32.619-14.481 41.875s-31.043 8.672-43.753-1.44-17.475-27.415-11.77-42.738c4.383-11.771 14.296-20.53 26.4-23.325 2.8-.646 5.666-.959 8.537-.933" fill="#291e21"/><path d="M499.8 403.892c12.507.851 9.986 13.488-.419 18-13.26-.907-11.256-14.189.419-18" fill="#fcfcfc"/><path d="M658.52 214.892c3.932 1.515 7.723 3.465 11.516 5.319 4.705 1.985 7.463 3.475 11.939 6.016-2.494 2.293-2.46 3.052-2.588 6.946-.301 9.215 1.134 23.586 3.831 32.37l-.551.349-3.183-1.863c-2.343-1.116-8.38-6.445-11.32-8.398-12.38-8.227-20.928-11.803-34.908-15.276-4.741 2.777-9.879 5.497-12.592 10.444-.05-3.594-.161-6.405-3.155-8.643-2.877-.436-6.652 1.063-10.291 1.641 6.734-5.274 43.573-25.837 51.302-28.905" fill="#ebbd07"/><path d="M658.668 214.892c3.943 1.519 7.745 3.474 11.55 5.333-10.924 5.389-26.287 13.899-36.887 20.196-4.755 2.784-9.908 5.512-12.628 10.471-.05-3.603-.161-6.421-3.164-8.665-2.885-.437-6.671 1.066-10.321 1.645 6.753-5.287 43.699-25.904 51.45-28.98" fill="#f8f589"/><path d="M679.711 549.892c2.66 1.05 4.701 1.497 6.435 3.697 1.163 7.104-12.112 30.904-16.583 36.943l.882 1.671c-4.832.876-10.421 2.034-15.227 2.689l.737-2.164c5.021-7.465 8.59-13.46 12.718-21.443 3.411-6.597 7.237-15.354 11.038-21.393" fill="#7f4f00"/><path d="M655.944 592.41c2.409-.109 9.992-2.1 13.405-2.518l.869 1.917c-4.761 1.004-10.266 2.332-15 3.083z" fill="#d99c02"/><path d="M645.947 429.961c20.885-1.251 38.853 14.618 40.192 35.5 1.338 20.879-14.455 38.914-35.33 40.341-20.999 1.436-39.164-14.472-40.512-35.479-1.347-21.005 14.638-39.104 35.65-40.362" fill="#291e21"/><path d="M637.257 443.892c13.084 1.08 10.839 12.691-.282 17-13.924-.308-12.15-13.573.282-17" fill="#fcfcfc"/><path d="M552.817 452.892c12.327.501 2.784 15.396 16.607 17.803 9.446 1.645 13.897-11.919 20.733-10.817 4.077 4.596 1.31 11.342-1.477 15.643l-.54.591c-19.664 21.168-54.549-5.685-35.323-23.22" fill="#291e21"/><path d="M580.062 290.892c14.78.226 13.855 13.391 3.19 19.839l-.581.065c-13.787 1.416-10.548-13.128-2.609-19.904" fill="#fefecf"/><path d="M462.218 147.881c7.31-5.816 21.759-13.466 30.372-17.725a346.15 346.15 0 0 1 149.685-36.234c22.533-.129 38.014.026 60.458 3.283 67.607 9.814 133.88 41.227 182.497 89.401a301.38 301.38 0 0 1 89.988 213.689c-5.384-2.801-9.015-4.404-14.667-6.666-14.87-5.158-32.333-2.951-46.536 3.365-35.476 18.326-47.528 55.188-52.723 92.366l-.796.451c-1.091-3.086 1.298-6.645.106-7.915-.666 2.112-2.021 8.246-3.944 8.996 9.86-32.412 17.166-76.739 7.401-109.423-23.774-79.58-89.589-141.585-159.1-182.071-69.973-40.756-162.323-73.271-242.741-51.517" fill="url(#g)"/><path d="M913.478 396.892c-.247-2.469 4.262-21.441 4.961-25.897a181.3 181.3 0 0 0 1.495-40.12c-2.112-29.697-11.078-64.449-19.542-93.201-2.842-9.655-10.326-21.978-12.174-30.693l.128-.089.047.977 1.008.037c3.025 4.362 6.597 7.777 9.556 11.683 6.237 8.233 16.716 22.232 20.647 31.484 24.371 42.593 39.991 91.847 41.614 140.864l-.338 1.579c-15.147-5.176-32.935-2.961-47.402 3.376" fill="#96a0ab"/><path d="m961.218 390.892-.714-.206c-.824-1.622-1.964-18.034-2.276-20.85a258 258 0 0 0-8.305-42.705 346 346 0 0 0-19.7-53.18c-2.327-4.921-10.8-18.819-11.005-23.059 24.597 42.332 40.361 91.284 42 140" fill="#646b77"/><path d="M861.88 263.892c13.038.205 18.843 23.723 6.622 27a28.7 28.7 0 0 1-4.773-1.005c-6.613-1.999-11.224-11.446-8.903-18.46 1.419-4.29 3.504-5.437 7.054-7.535" fill="#fcfcfc"/><path d="M812.934 251.908c8.699-.318 16.064 4.31 10.154 13.573-10.148 2.236-12.208-4.975-10.154-13.573m92.463 70.984c7.729 2.788 6.994 14.507 2.259 19-9.615-3.186-9.405-13.427-2.259-19m-2.572 29c9.028 4.666 9.017 11.886 4.096 20-1.268-.021-2.675-.16-3.952-.252-4.91-3.819-2.146-14.762-.144-19.748m-3.678-59c2.061.178 3.799.307 4.824 2.278 2.357 4.539 4.087 11.155-1.372 13.722-7.194-3.519-10.555-9.847-3.452-16" fill="#646b77"/><path d="M812.611 165.892c9.508.755 13.023 8.352 5.636 14.626-2.257.445-2.157.48-4.418.174-5.278-3.487-3.946-10.008-1.218-14.8" fill="#fcfcfc"/><path d="m634.037 108.115 2.254-.223.927 1.004c-1.214 5.575-13.871 3.792-18.394 3.473-2.177-.585-1.823-.044-2.606-1.241l3.096-2.683z" fill="#babfc4"/><path d="m601.218 107.892-3.121 5.097c-5.103 5.404-11.039 4.776-17.879 4.903 1.782-1.599 3.997-3.248 5.904-4.739 5.523-3.908 8.71-4.127 15.096-5.261" fill="url(#h)"/><path d="m601.218 107.892-3.101 5.074c-1.69-1.166-2.082 1.099-5.494.916.591-1.254.993-1.97 1.664-3.165-1.591-.259-5.715 1.846-8.069 2.412 5.488-3.89 8.654-4.108 15-5.237" fill="#babfc4"/><path d="M756.218 220.892c2.925.842 8.421 5.851 11 8-4.101-1.081-7.92-4.978-11-8" fill="#96a0ab"/><path d="M458.396 187.068c59.134-8.958 125.507-4.351 179.822 22.118a468.6 468.6 0 0 0-106.942 69.107c-67.743 59.196-132.628 161.916-162.583 246.474a321 321 0 0 0-1.24 3.57c-1.294 2.805-1.873 4.597-2.836 7.555-1.246-1.124-4.709-4.089-5.552-5.241-13.25-12.536-24.395-31.532-30.97-48.335-23.776-60.755-17.643-130.208 8.382-189.201 19.246-43.625 48.025-80.115 93.506-98.072 7.95-4.216 19.611-6.532 28.413-7.975" fill="url(#i)"/><path d="M429.602 195.848c7.924-4.206 19.547-6.516 28.32-7.956.247 1.421.605 1.597-.206 2.464-5.69 6.063-20.059 11.275-27.667 14.878-3.096 1.665-15.297 8.762-17.011 11.182-1.701 3.828-4.722 4.749-6.232 8.23 2.537 3.005 4.588 1.203 7.745 1.191-16.51 9.087-25.534 15.605-31.395 34.863-3.974 13.054-2.596 23.507 4 35.445l-1.253-.129-1.123-.806c-1.695 2.945-3.338 5.746-5.568 8.325-6.824 7.889-9.771 18.023-14.333 27.173-6.063 12.165-11.526 24.373-14.95 37.585-1.942 7.447-2.646 15.403-4.22 22.946-1.391 6.666-4.174 12.945-5.271 19.659-1.672 24.145-.849 49.179 4.875 72.768 1.23 5.067 4.031 10.342 5.828 15.294 3.223 8.881 5.213 26.844 16.135 29.395-1.29 2.798-1.866 4.586-2.827 7.537-1.241-1.122-4.693-4.08-5.534-5.228-13.206-12.507-24.315-31.458-30.869-48.221-23.698-60.611-17.585-129.9 8.355-188.754 19.183-43.522 47.869-79.926 93.201-97.841" fill="#fcfcfc"/><path d="M358.762 530.639c.177-8.976-11.899-26.715-15.262-36.132-15.13-42.365-17.458-80.997-10.644-124.879 7.013-48.152 27.009-93.553 57.891-131.44 6.998-8.457 13.941-16.78 22.935-23.296-1.726 3.846-4.792 4.771-6.323 8.27 2.573 3.018 4.655 1.208 7.859 1.196-16.754 9.13-25.91 15.679-31.858 35.029-4.032 13.117-2.635 23.619 4.059 35.614l-1.272-.13-1.139-.809c-1.72 2.959-3.388 5.773-5.651 8.364-6.923 7.928-9.915 18.11-14.543 27.303-6.153 12.223-11.697 24.489-15.171 37.765-1.97 7.482-2.684 15.476-4.282 23.055-1.411 6.697-4.235 13.007-5.349 19.752-1.696 24.261-.861 49.415 4.948 73.115 1.247 5.092 4.09 10.392 5.913 15.368 3.27 8.924 5.29 26.972 16.373 29.535-1.309 2.811-1.894 4.608-2.869 7.573-1.259-1.127-4.762-4.099-5.615-5.253m71.456-335.865c7.754-3.638 19.126-5.636 27.711-6.882.241 1.229.592 1.381-.202 2.131-5.567 5.244-19.627 9.753-27.071 12.869-.377-4.512 2.883-10.048 8.492-9.046l.427.861c-1.969 2.649-4.776 3.28-7.29 5.759 1.718-.737 9.656-3.63 10.414-4.18 1.159-2.185 1.033-1.121.839-3.247l-.975-.387-.99 1.54-.923.013-.195-1.473c-.965-.247-7.338 1.961-10.237 2.042" fill="#3ad7dc"/><path d="M415.132 224.422c11.755-4.314 24.356-6.968 36.312-1.278 7.655 3.67 13.482 10.27 16.141 18.29 8.614 26.86-18.459 57.359-43.687 63.688-15.331 3.846-25.693 1.836-36.405-10.108-6.655-11.986-8.045-22.481-4.036-35.588 5.914-19.337 15.018-25.881 31.675-35.004m81.087-25.514c28.64-.851 31.51 32.462 3.077 39.968-10.625.303-19.817-3.558-22.514-14.65a19.27 19.27 0 0 1 2.392-14.884c4.088-6.513 9.872-8.982 17.045-10.434m-56.144 124.071c22.456-1.835 25.113 25.869 2.067 33.647-19.719 3.174-26.916-22.829-2.067-33.647m27.844-31.087c17.849 1.52 17.34 20.523.823 25-6.747.007-12.162-2.995-13.348-9.982a12.84 12.84 0 0 1 2.346-9.759c2.747-3.787 5.822-4.569 10.179-5.259m-82.618 14c11.398 2.454 6.879 11.493-.46 16-10.498-2.158-9.972-12.455.46-16" fill="#fcfcfc"/><path d="M352.658 380.892c10.521.373 10.702 5.737 4.028 11.825-10.674 1.466-10.361-6.618-4.028-11.825m19.679-45c5.661.956 5.987 4.475 3.074 8.987-3.006.005-4.023.351-5.193-2.878.182-2.983.656-3.433 2.119-6.109" fill="#d2eaec"/><path d="M856.584 491.848c1.92-.747 3.274-6.853 3.939-8.956 1.191 1.264-1.195 4.807-.106 7.879l.795-.448c-2.107 39.917 4.585 78.728 45.451 95.68a595 595 0 0 0 12.555 3.607c-6.159 18.618-13.659 32.361-31.893 41.532l-2.353 1.174c-3.519 2.311-8.801 4.837-12.752 6.373-12.178 7.332-21.825.451-31.131 4.329-45.968 19.161-84.866 33.589-136.284 33.907-11.727.615-46.946 1.725-58.045.193-36.996.396-77.449-5.228-114.354-9.499-13.13-1.537-26.187-3.858-39.34-5.173-9.555-.957-10.426 4.092-12.135 11.559-43.031-10.95-151.972-46.629-168.713-92.364 2.138-10.517 3.271-12.304 13.084-16.604l3.769 5.409c14.704 14.549 46.841 33.499 66.174 41.804 2.821 2.632 10.913 7.689 14.582 7.758 11.882 5.76 22.387 8.61 32.529 13.306 3.531.33 18.515 5.737 22.864 7.061a345 345 0 0 0 30.139 7.485c67.139 13.56 147.761 14.112 212.709-10.217 57.69-21.612 103.433-53.575 132.935-108.838 7.438-13.934 9.41-23.475 15.332-36.422z" fill="url(#j)"/><path d="M856.604 491.846c1.919-.746 3.273-6.851 3.937-8.954 1.191 1.264-1.194 4.807-.105 7.878l.794-.449c-2.106 39.911 4.584 78.715 45.437 95.664a581 581 0 0 0 12.551 3.607c-6.157 18.615-13.655 32.356-31.883 41.525l-2.352 1.174c-3.519 2.31-8.798 4.836-12.748 6.371-12.174 7.331-21.819.452-31.122 4.329-45.953 19.158-84.838 33.583-136.241 33.901 3.281-1.027 8.102-.237 9.168-2.033l-.771-.805c-2.167-.077-4.16-.127-6.328-.115 1.212-.73 2.765-.766 4.28-1l-5.388-.825c23.456-4.001 41.416-10.106 63.33-19.019 13.181-5.188 32.79-8.538 43.866-17.948 17.481-14.855 43.094-37.221 47.552-60.656 1.128-10.139-.7-22.955-13.247-23.737-15.039-.937-24.139 18.945-33.934 28.325-8.894 8.576-18.47 19.752-28.085 27.44-53.482 42.768-124.979 60.208-192.511 60.176-29.337-.013-61.254-8.18-91.016-10.962-9.65.121-14.189.205-23.597-1.693-12.974-4.21-27.738-6.656-40.657-12.051.96-2.16-2.351-5.174-2.316-9.23l1.077-.517c2.578.974 2.71.975 5.531 1.038l.679.009c3.531.33 18.51 5.735 22.857 7.059a345 345 0 0 0 30.13 7.484c67.118 13.557 147.715 14.11 212.643-10.216 57.671-21.607 103.4-53.565 132.893-108.819 7.435-13.931 9.407-23.471 15.327-36.416z" fill="url(#k)"/><path d="M906.616 584.892a581 581 0 0 0 12.602 3.66c-6.182 18.895-13.711 32.842-32.013 42.149l-2.362 1.191c-.916-2.011-.597-1.267-.452-3.772 1.31-3.265 4.276-7.834 6.189-11.004 6.766-8.755 12.275-21.947 16.036-32.224" fill="#d2eaec"/><path d="m872.626 637.892-.408-1.393c1.93-4.98 6.342-10.95 9.954-14.607l1.937.639c-.094 2.209-.307 2.586.664 4.528-.142 2.651-.456 1.864.445 3.991-3.476 2.481-8.69 5.193-12.592 6.842m-395.408 16.225 1.223-.411c6.601-2.256 9.682-4.311 17.567-1.318 2.885 1.094 2.995 1.127 5.21 3.449-9.815.123-14.431.209-24-1.72" fill="#babfc4"/><path d="M884.307 623.502c1.094-2.474 2.864-7.909 5.185-8.61.693 1.444.232.79 1.726 1.714-1.926 3.251-4.912 7.938-6.231 11.286-.995-1.883-.776-2.248-.68-4.39m-20.162-24.61c2.155.681 2 .635 3.583 2.257 2.282 5.48-3.923 9.913-7.971 12.525-2.33.25-1.322.517-3.175-.63-1.634-6.434 2.467-10.932 7.563-14.152m-535.281-30c14.713 14.637 46.87 33.701 66.214 42.055 2.823 2.649 10.92 7.735 14.592 7.805 11.889 5.795 22.4 8.661 32.548 13.386l-.68-.009c-2.824-.063-2.956-.064-5.536-1.044l-1.078.52c-.035 4.081 3.279 7.114 2.318 9.287-13.511-4.704-38.026-15.365-50.221-22.103-5.859-4.994-24.355-15.834-31.424-19.82-7.16-3.765-27.143-20.259-28.379-28.208zm318.354 108.192c13.414-1.318 19.348 2.695 34.744-1.801l-.446-.025c5.083-1.226 18.677-2.603 24.519-3.366l5.372.862c-1.511.244-3.059.282-4.268 1.045a143 143 0 0 1 6.309.119l.77.841c-1.064 1.876-5.87 1.05-9.142 2.123-11.689.642-46.795 1.801-57.858.202" fill="#babfc4"/><path d="M355.218 599.892c6.974 3.821 25.22 14.213 31 19-7.343-.221-19.249-7.266-25.456-11.364-3.075-2.03-4.239-4.35-5.544-7.636" fill="#e6e6e7"/><path d="M806.55 602.892c2.892.238 3.657.317 5.509 2.349 1.216 5.738-4.806 8.25-9.298 9.651-3.253-.157-3.809-.262-5.516-3.072-.434-5.59 4.43-8.217 9.305-8.928" fill="#646b77"/><path d="M761.23 247.892c12.502 9.649 25.983 23.906 36.403 35.804 28.772 32.85 55.982 74.518 61.637 118.643 4.266 33.294-6.434 82.264-20.765 112.82a217.6 217.6 0 0 1-25.669 41.006c-40.14 51.374-112.813 83.152-176.637 90.794a438.2 438.2 0 0 1-164.967-12.248c-15.866-4.263-30.803-9.761-45.995-15.987-3.936-1.613-7.85-3.275-11.989-4.179-3.243-.706-3.33 3.529-3.655 5.422-3.678-.07-11.789-5.163-14.617-7.815.867-.86 1.246-1.492 1.97-2.48.06-1.362.201-2.445-1.162-3.342-20.599-13.558-49.799-24.071-62.821-46.037-1.616-2.727-.28-7.262.946-10.082l.793-.407c-.244-4.055-.418-6.671 2.017-9.863-.939-2.824-.204-9.48.039-12.675 23.966 24.122 41.888 33.694 72.245 47.887 53.507 25.016 113.593 38.116 172.548 40.254 69.508 2.522 150.124-11.975 202.79-60.798 34.814-32.273 57.98-82.991 59.914-130.323-.775-65.888-36.029-114.283-80.842-158.407 2.396.7 2.784 1.264 4.778 2.954l.646.556c.148-4.27-.99-7.609-.43-11.999.333-2.619-5.831-4.635-7.177-9.498" fill="url(#l)"/><path d="M843.902 423.969c.604-2.147.389-2.878 1.785-4.077 2.779 4.569 1.097 26.97.215 32.583-8.74 55.623-39.62 104.04-88.505 133.234a275.2 275.2 0 0 1-51.104 23.353c-5.37 1.786-19.731 5.204-23.496 7.13-24.668 5.022-58.023 10.601-83.192 10.228-3.281-.383-5.484-.722-8.601.723l-.564.749-.915-1.241c-4.461-1.226-24.921-1.801-30.934-2.184a349 349 0 0 1-41.316-4.894 461.5 461.5 0 0 1-138.534-47.691c-16.679-9-32-17.161-43.059-32.857-.939-2.81-.203-9.431.039-12.609 23.999 23.996 41.946 33.519 72.343 47.638 53.579 24.887 113.746 37.919 172.78 40.047 69.602 2.508 150.326-11.914 203.063-60.484 34.861-32.105 58.058-82.561 59.995-129.648" fill="#fcfcfc"/><path d="M336.024 539.892c11.03 15.562 26.312 23.654 42.949 32.577 43.208 22.966 89.86 38.93 138.179 47.285a350 350 0 0 0 41.211 4.852c5.997.38 26.406.95 30.855 2.165-.588 4.044-2.957 5.321-7.084 5.096-7.531-.408-15.115-.722-22.637-1.239-62.765-4.452-123.957-21.501-179.844-50.108-21.073-10.869-29.223-14.491-46.435-30.499l.791-.401c-.243-4-.417-6.579 2.015-9.728" fill="url(#m)"/><path d="M682.218 615.892c-3.182 8.077-77.818 21.583-83 13.525l.083-2.991c25.085.385 58.331-5.361 82.917-10.534" fill="#676162"/><path d="M916.764 412.314a51.63 51.63 0 0 1 39.311-7.225c13.802 2.915 25.275 10.34 34.364 20.965 4.916 4.528 6.94 8.648 9.781 14.549-8.141-5.544-18.031-9.807-27.764-7.129-40.41 11.116-56.152 70.313-48.014 106.581 3.445 15.352 9.955 25.35 21.987 33.837-6.845-.163-14.167-.294-20.833-2.042-14.389-.611-30.145-15.409-36.666-27.52-7.379-14.585-9.462-19.398-11.081-36.1-1.539-10.784.008-24.327 1.745-35.028.553-3.464 1.493-6.275 2.498-9.616 11.229.513 25.088 4.448 35.531 8.349 1.268-1.19 1.232-1.63 1.876-3.3-1.79-8.074-27.518-11.266-34.816-11.783 4.872-16.803 16.314-35.916 32.081-44.538" fill="url(#n)"/><path d="M916.069 412.34a50.83 50.83 0 0 1 39.031-7.248c13.703 2.925 25.094 10.374 34.118 21.031-1.443.308-1.026.536-2.382.03-10.015-3.742-21.03-3.175-30.681.856-11.306 6.011-25.55 25.793-30.701 37.789-1.32 3.074-.891 6.324-3.406 10.143-1.143.548-2.329 1.191-3.599 1.315-1.891.185-2.408 1.659-3.848 2.636 1.62-3.356 2.928-3.715 2.321-6.744 1.259-1.194 1.223-1.636 1.863-3.311-1.778-8.099-27.321-11.301-34.567-11.819 4.837-16.856 16.198-36.029 31.851-44.678" fill="url(#o)"/><path d="M916.218 412.298a50.85 50.85 0 0 1 38.951-7.212c13.675 2.911 25.043 10.321 34.049 20.926-1.44.306-1.024.533-2.377.029-9.995-3.723-20.988-3.159-30.619.851.764-2.353.799-2.19.528-4.63-2.642-1.836-4.448.202-6.723-.705-9.785-3.901-20.932-3.837-30.129-9.176-1.272-.741-2.202-.262-3.68-.083" fill="#fcfcfc"/><path d="M882.025 464.892c11.075.494 24.743 4.284 35.042 8.042.603 2.909-.696 3.253-2.305 6.476-.891 1.767-1.89 3.633-2.654 5.446-4.456 10.384-4.631 22.888-4.38 34.036-11.45-2.671-19.446-9.842-29.888-11-1.518-10.387.008-23.431 1.721-33.739.546-3.336 1.473-6.044 2.464-9.261" fill="#babfc4"/><path d="M881.704 464.892c11.176.495 24.969 4.292 35.362 8.056.608 2.914-.703 3.259-2.326 6.487-.899 1.772-1.908 3.641-2.679 5.457-3.727-.735-29.654-7.996-32.459-9.369l-.384-1.353c.551-3.342 1.486-6.055 2.486-9.278" fill="#fcfcfc"/><path d="M877.218 508.892c10.439 1.166 18.433 8.384 29.88 11.072.861 5.14 2.727 18.439 4.12 22.965-6.234-.724-15.533-2.248-21.422-.906-.58.624-1.156 1.188-1.651 1.869-7.277-14.141-9.331-18.807-10.927-35" fill="#96a0ab"/><path d="M888.218 544.371c.493-.703 1.067-1.284 1.645-1.928 5.863-1.384 15.121.187 21.328.934 5.508 4.324 15.593 15.685 13.821 23.283l-1.633-3.144-.833.383c-.837 2.848-.895 3.168-1.032 6.153l2.471 1.105.229.735c-14.127-.612-29.595-15.41-35.996-27.521" fill="#868893"/><path d="M978.071 445.051c46.949-4.789 30.529 100.02-15.213 116.459-13.074 2.261-20.695-5.742-24.283-17.676-6.641-22.08-3.033-48.634 7.337-69.019 7.462-14.671 16.371-24.521 32.159-29.764" fill="#babfc4"/><path d="M975.156 453.959c29.784-2.816 30.784 84.517-15.224 97.436-3.979.972-7.621 2.041-11.605 1.183-6.513-4.125-7.833-17.67-8.696-24.782-2.822-23.234 8.785-67.507 35.525-73.837" fill="url(#p)"/><path d="M509.096 672.892c9.564.565 79.177 8.726 82.468 11.857 1.097 3.214.539 6.227.28 9.694-.763 15.99-2.498 30.45-4.352 46.342-18.85.967-61.121-4.821-79.36-9.857-4.351-11.569-3.062-35.461-1.071-47.95.565-4.055.814-6.095 2.035-10.086" fill="url(#q)"/><path d="M507.069 683.892c2.548 2.878 9.191 1.979 11.903 4.392-2.549 8.299-4.705 28.556-.51 36.623 6.043 4.622 51.587 10.534 57.286 6.784 3.234-5.643 4.835-30.767 4.22-37.26 4.657-.445 7.624.125 12.25.745-.766 15.738-2.509 29.969-4.371 45.611-18.931.951-61.385-4.745-79.703-9.702-4.369-11.386-3.074-34.901-1.075-47.193" fill="#babfc4"/><path d="M509.248 672.892c9.547.577 79.032 8.907 82.318 12.104 1.094 3.281.537 6.356.278 9.896-4.597-.643-7.546-1.235-12.174-.772-2.429-.554-8.264-1.616-10.518-1.721-10.843-.51-41.907-8.565-50.104-4.655-2.696-2.503-9.298-1.57-11.83-4.555.564-4.14.812-6.223 2.03-10.297" fill="#fcfcfc"/><path d="M522.863 692.892c15.797 2.023 33.695 4.29 49.355 7.189a330 330 0 0 1-2.406 26.975 3.8 3.8 0 0 1-1.755.737c-5.264.731-39.326-2.711-44.757-6.196-3.778-6.21-1.46-21.493-.437-28.705" fill="url(#r)"/><path d="M399.218 197.186c42.51-38.044 80.604-49.923 137.106-46.825 37.895 2.075 87.234 15.48 121.412 32.061 26.498 9.895 83.247 46.694 103.845 66.042 1.35 4.847 7.526 6.857 7.192 9.468-.561 4.375.579 7.704.431 11.96l-.647-.554c-1.999-1.684-2.387-2.247-4.788-2.944-4.728-2.983-16.155-14.001-21.414-18.218a393 393 0 0 0-54.19-36.705c-67.697-37.297-159.219-61.583-235.556-39.662-17.614 6.821-36.6 16.435-53.391 25.377" fill="#e6e6e7"/><path d="M399.218 196.892c42.26-37.807 80.13-49.612 136.301-46.534 37.672 2.063 86.722 15.384 120.699 31.862-3.911.57-17.894-7.06-22.866-8.51-10.308-3.006-34.938-13.556-44.564-13.617l1.369 1.32-.441.49c-2.305-.065-3.463.032-5.77.257 1.791 1.927 11.82 2.425 14.181 3.294 4.267 1.568 6.904 2.336 11.228 3.486-1.527.55-10.36-2.186-12.718-2.7-31.965-6.969-65.341-10.766-98.078-8.971-7.686.422-15.298 2.259-22.903 3.178l-.365-.605 4.207-.933c-1.14-1.207-2.152-2.32-3.41-3.418-6.893.919-34.894 11.112-38.318 15.398.398 2.739-.076 2.335 1.446 4.147 4.197.483 8.213-4.452 13.079-3.363-17.51 6.778-36.385 16.333-53.077 25.219" fill="#fcfcfc"/><path d="M803.218 669.913c13.196-4.642 24.492-11.276 37.966-15.543 29.268-9.269 41.778 27.334 26.454 46.795-2.696 4.23-11.997 11.927-16.093 14.931-7.754 6.37-33.141 10.104-43.824 11.796 5.551-14.497 7.501-30.801 3.271-45.924-2.135-5.008-4.229-7.901-7.774-12.055" fill="#291e21"/><path d="M803.218 669.859c13.196-4.628 24.492-11.241 37.966-15.494 29.268-9.239 41.778 27.247 26.454 46.645-2.696 4.215-11.997 11.888-16.093 14.882-.464-1.271-.475-2.488-.622-3.869q.6-.609 1.177-1.24c14.774-16.244 8.079-39.949-16.032-37.819-5.77-.47-5.927 2.707-9.684 1.594-4.367 4.588-9.74 4.669-15.392 7.317-2.135-4.992-4.229-7.876-7.774-12.016" fill="#d2eaec"/><path d="M855.293 663.892c10.432 9.737 15.354 21.244 11.754 35.645l.533 1.666c-2.638 4.161-11.738 11.733-15.745 14.689-.454-1.255-.465-2.456-.609-3.819a44 44 0 0 0 1.152-1.224c14.455-16.033 7.904-39.429-15.685-37.327-5.646-.463-5.799 2.672-9.475 1.573 4.103-3.434 22.548-9.898 28.075-11.203" fill="#868893"/><path d="M826.956 674.542c3.772 1.118 3.929-2.074 9.723-1.602-23.824 13.69-18.484 53.096 14.914 39.249.148 1.387.158 2.61.625 3.888-7.786 6.38-33.274 10.12-44 11.815 5.573-14.521 7.531-30.851 3.284-45.998 5.675-2.66 11.069-2.742 15.454-7.352" fill="url(#s)"/><path d="M838.718 679.93c19.309-1.1 18.388 22.132 2.83 28.65-15.66 3.322-18.674-20.807-2.83-28.65" fill="#fe5b58"/><path d="M734.218 684.788c17.728-1.167 41.637-6.53 58.685-10.896 3.238 3.744 4.509 6.344 6.4 10.708 4.896 11.252 2.938 26.051-.842 37.615-.624 1.907-3.025 5.738-4.934 6.145-17.283 3.701-41.027 6.338-58.269 8.532 4.133-13.797 5.623-27.796 2.323-41.903-.707-2.928-2.345-7.235-3.363-10.201" fill="url(#t)"/><path d="M734.218 684.738c17.432-1.161 40.943-6.5 57.707-10.846 3.184 3.727 4.433 6.315 6.293 10.659-4.787 3.877-50.9 7.061-60.694 10.341-.695-2.914-2.304-7.202-3.306-10.154" fill="#d2eaec"/><path d="M635.218 686.892c11.785.234 27.939.129 39.397 1.14 1.044 3.341 2.103 6.625 2.992 10.014 1.416 8.708 2.387 19.058.772 27.809-1.278 6.655-2.292 9.454-5.571 15.273-8.039 1.008-28.353.673-37.057.764.438-7.136 1.354-16.615 2.122-23.709q.061-10.167-.391-20.321c-.693-3.747-1.323-7.267-2.264-10.97" fill="#babfc4"/><path d="M636.218 741.892c.431-7.223 1.333-16.818 2.091-24 .068 2.092-.048 5.86.751 7.605 9.692 1.302 28.046-.525 39.158.161-1.259 6.737-2.259 9.571-5.49 15.461-7.92 1.02-27.935.681-36.51.773" fill="#868893"/><path d="M635.218 686.892c11.955.252 28.341.139 39.964 1.226 1.059 3.595 2.134 7.128 3.036 10.774l-40.704-.198c-.702-4.031-1.341-7.818-2.296-11.802" fill="#d2eaec"/><path d="M685.218 688.094c12.072-.777 24.545-1.747 36.602-2.202 1.909 3.039 2.892 5.538 4.295 8.81 2.766 10.74 2.411 18.165 1.167 29.093-1.315 5.496-2.213 9.399-5.067 14.37-12.201 1.751-24.01 2.2-36.306 2.727 1.491-5.811 2.143-9.639 3.029-15.611 1.132-10.936 1.206-16.31-.513-27.099-.752-3.265-2.113-6.883-3.207-10.088" fill="#babfc4"/><path d="M689.219 725.37c12.818.005 25.371-1.508 37.999-1.477-1.303 5.464-2.193 9.345-5.021 14.287-12.092 1.741-23.794 2.188-35.979 2.712 1.477-5.778 2.123-9.584 3.001-15.522" fill="#868893"/><path d="M685.218 688.221c12.102-.822 24.607-1.848 36.693-2.329 1.915 3.215 2.9 5.858 4.307 9.319-7.457.348-29.977 2.419-37.785 3.681-.754-3.454-2.119-7.281-3.215-10.671" fill="#d2eaec"/><path d="M40.088 662.051c24.794-10.125 39.36 5.206 36.85 30.105.044 16.93-20.901 33.117-36.378 35.411-9.699 1.437-19.766-1.719-20.31-12.835-.387-7.851 2.804-22.997 7.96-28.904 2.59.754 7.052.521 9.76.201-4.458 4.436-4.939 7.309-5.94 13.362-2.897 17.481 14.054 20.083 24.82 9.009a29.6 29.6 0 0 0 8.438-21.02c-.18-9.08-4.154-13.885-10.384-19.601-5.375-2.677-9.049-3.829-14.816-5.728" fill="#676162"/><path d="M39.218 662.026c25.374-10.045 40.282 5.164 37.714 29.866-.903-2.269-.29-4.695-.9-6.527-2.324-6.972-14.448-18.011-21.65-17.656-5.502-2.656-9.262-3.799-15.164-5.683" fill="#c5beac"/><path d="M373.672 652.8c1.102-2.247 2.25-4.731 3.439-6.908 10.491 5.568 23.994 10.997 35.107 15.816l-3.694 7.523c-2.079 5.466-3.253 9.476-3.8 15.385-.449 4.147-.319 9.041-.319 13.276-12.159-5.317-21.858-9.354-33.235-16.228-.76-3.888-.808-5.828-.946-9.701-.098-7.459.956-12.289 3.448-19.163" fill="#babfc4"/><path d="m370.218 671.892.652.242c6.57 2.488 27.631 13.157 33.578 13.289l.77-.843c-.456 4.158-.324 9.065-.324 13.312-12.335-5.331-22.175-9.379-33.717-16.273-.771-3.898-.82-5.843-.959-9.727" fill="#868893"/><path d="M373.218 652.7c1.115-2.215 2.276-4.663 3.479-6.808 10.615 5.488 24.277 10.837 35.521 15.587l-3.738 7.413c-7.379-1.682-30.472-11.059-35.262-16.192" fill="#fcfcfc"/><path d="M418.568 670.564c.755-2.198 1.14-4.326 2.853-5.672 4.746.839 23.288 7.901 28.797 9.795l-1.748 5.988c-1.744 6.817-2.98 12.612-3.604 19.67-.067 4.456.012 9.076.033 13.547a619 619 0 0 1-28.795-11.092c-.575-5.404-1.234-11.674-.672-17.046.91-5.9 1.616-9.44 3.136-15.19" fill="#babfc4"/><path d="M416.084 702.46c-.562-5.57-1.206-12.032-.657-17.568l.608 2.778c7.119 4.144 19.05 6.794 27.177 11.68l.974.58c-.066 4.593.011 9.354.032 13.962a586 586 0 0 1-28.134-11.432" fill="#868893"/><path d="M418.218 670.283c.764-2.089 1.152-4.112 2.885-5.391 4.798.797 23.545 7.509 29.115 9.31l-1.767 5.69c-6.417-.528-23.169-7.077-30.233-9.609" fill="#fcfcfc"/><path d="M339.686 634.857c1.947-3.214 3.023-4.982 5.434-7.965 7.838 4.48 15.36 9.282 23.098 13.907-1.735 3.236-3.444 6.207-4.77 9.64-1.798 5.444-3.073 10.052-3.812 15.784.17 2.191-.099 8.212-.152 10.669-6.334-3.706-14.81-8.184-20.167-13.023-4.211-3.804-4.095-6.592-4.099-11.861.23-6.221 1.371-11.729 4.468-17.151" fill="#babfc4"/><path d="M340.218 635.011c1.91-3.276 2.966-5.078 5.333-8.119 7.691 4.567 15.073 9.461 22.667 14.175-1.703 3.298-3.38 6.326-4.681 9.825-4.088-2.089-18.773-12.668-23.319-15.881" fill="#fcfcfc"/><path d="M335.218 651.892c4.464 2.326 22.127 13.887 24.268 14.567l.675-.286c.174 2.202-.101 8.251-.155 10.719-6.47-3.723-15.128-8.222-20.601-13.083-4.301-3.822-4.183-6.623-4.187-11.917" fill="#868893"/><path d="M459.285 676.892c6.85 1.589 14.235 3.147 20.933 5.163l-.901 8.202c-.287 5.254-.75 11.143-.539 16.338l-.087 16.297c-7.836-2.372-15.128-4.593-23.09-6.512-.296-3.924-.294-8.751-.383-12.765.113-7.077.734-11.415 1.786-18.459z" fill="#babfc4"/><path d="M455.218 703.892c5.145 1.366 18.319 5.457 22.821 6.095.716-1.566.713-1.485 1.179-3.158l-.089 16.063c-7.982-2.338-15.41-4.527-23.521-6.418-.302-3.868-.299-8.626-.39-12.582" fill="#868893"/><path d="M458.577 676.892c7.082 1.546 14.716 3.061 21.641 5.022l-.931 7.978c-7.332-.24-15.911-2.968-23.069-4.961z" fill="#e6e6e7"/><path d="M612.153 685.892c4.679.487 9.633 1.086 14.298 1.45l1.726 9.348c1.157 8.149 1.407 20.966.458 29.31-.721 6.927-1.773 9.699-4.519 15.892l-12.898-.555c.069-5.643.202-10.554.617-16.177.499-9.337.27-20.416.305-29.883z" fill="#babfc4"/><path d="M611.82 724.925c5.833-.013 10.634-.264 16.398.852-.704 7.024-1.73 9.836-4.411 16.115l-12.589-.563c.068-5.722.197-10.702.602-16.404" fill="#868893"/><path d="M612.23 685.892c4.669.485 9.612 1.081 14.266 1.443l1.722 9.303c-2.275.833-13.663-.577-16-1.406z" fill="#d2eaec"/><path d="M320.555 607.892c6.113 4.817 12.655 9.81 18.663 14.615-2.321 2.381-4.461 4.416-6.406 7.103-3.17 5.925-4.526 8.988-5.971 15.621l-.588 8.661c-6.857-4.841-12.077-7.847-16.941-14.691-.132-4.406-.205-6.446.344-10.848 2.103-6.145 2.768-8.536 5.926-14.279 1.578-2.094 3.134-4.312 4.973-6.182" fill="#babfc4"/><path d="M321.057 607.892c5.949 4.88 12.315 9.937 18.161 14.805-2.258 2.412-4.341 4.473-6.234 7.195-8.364-4.521-9.682-9.986-16.766-15.737 1.535-2.122 3.049-4.368 4.839-6.263" fill="#fcfcfc"/><path d="M309.666 627.892c4.712 4.389 14.58 12.559 17.552 17.183l-.6 8.817c-7.004-4.928-12.336-7.988-17.304-14.956-.135-4.485-.209-6.562.352-11.044" fill="#868893"/><path d="M817.218 354.892c.841.731 1.778 2.094 2.26 3.077 16.774 34.144 19.341 73.197 7.139 108.568l-.621 2.014-1.028.855.222.486c-1.371-1.625.716-21.592.93-24.963 1.939-30.587-5.504-59.841-8.902-90.037" fill="url(#u)"/><path d="M488.751 679.918c.291-2.724.235-6.67 2.774-8.326 3.679-2.398 6.972-2.495 9.524 1.241.604 3.315-.567 7.601-1.161 11.075l-.422 2.702c-.794 5.805-1.345 10.008-1.524 15.825-.374 9.211-.221 16.316.95 25.457a598 598 0 0 1-11.177-2.555c-1.745-8.779-1.861-18.479-.883-27.35q.283-3.649.634-7.294a465 465 0 0 1 1.285-10.775" fill="#868893"/><path d="M488.218 679.907c.303-2.721.245-6.663 2.892-8.317 3.836-2.396 7.27-2.492 9.932 1.24.63 3.311-.591 7.592-1.211 11.062-3.92-.033-8.418-1.972-11.613-3.985" fill="#fcfcfc"/><path d="M487.218 689.954q.559-5.538 1.241-11.062c2.959 2.069 7.127 4.062 10.759 4.096l-.408 2.774c-2.837-1.958-1.935-2.009-4.462-1.558-3.001 3.283-3.718 4.429-5.104 8.688l-1.261-.424z" fill="#babfc4"/><path d="M494.218 684.122c2.831-.446 1.821-.395 5 1.539-.86 5.885-1.456 10.146-1.65 16.044l-.841 2.187c-2.04-7.106.939-14.589-2.509-19.77" fill="#96a0ab"/><path d="m487.682 689.892.58 2.642.956.446c-.255 2.744-.364 6.79-1.287 8.912-.614-1.914-.545-2-.713-4.13q.206-3.937.464-7.87" fill="#babfc4"/><path d="M302.978 589.892a326 326 0 0 1 10.24 11.447c-6.032 6.167-10.069 13.133-12.141 21.759-.842 4.521-1.149 7.191-1.508 11.794-7.977-10.514-7.868-13.083-6.893-26.497 2.666-7.596 4.703-12.625 10.302-18.503" fill="#fcfcfc"/><path d="M299.686 634.892c-8.104-10.714-7.993-13.331-7.003-27 2.273 3.521 6.904 11.245 8.535 14.982-.855 4.607-1.168 7.328-1.532 12.018m299.256 49 3.36.335c1.462 1.31 1.257.709 1.615 3.183 1.027 7.118-.69 49.541-3.42 53.482-2.01-.209-3.847-.065-5.265-1.422-.253-4.266 2.902-53.01 3.71-55.578m286.395-38.443c2.44-1.043 3.825-2.033 6.296-1.309 6.634 4.602 2.697 16.333-.919 21.781-1.153 1.346-3.909 3.686-5.332 4.971-3.379-9.292-5.393-12.22-10.164-20.687 3.365-2.06 6.498-3.237 10.119-4.756" fill="#868893"/><path d="M885.218 645.447c2.469-1.041 3.871-2.03 6.371-1.307 6.715 4.596 2.731 16.311-.929 21.752-1.35-5.904-1.306-16.833-5.442-20.445" fill="#babfc4"/><path d="M27.218 685.407c2.363-3.541 10.832-17.517 16.828-12.402 1.13 4.88-3.57 9.274-6.847 12.596-2.77.308-7.333.533-9.981-.194" fill="#c5beac"/><path d="M272.382 368.892c3.119 2.456 1.504 15.586.65 19-2.995-3.698-1.592-14.739-.65-19" fill="#babfc4" fill-opacity=".169"/><path d="M377.218 160.734c.51-.909 3.199-3.176 4-3.842-.924 2.108-1.384 3.619-2.883 5l-.668-.104z" fill="#babfc4" fill-opacity=".082"/></g><defs><linearGradient id="b" x1="616.046" y1="809.022" x2="603.381" y2="780.886" gradientUnits="userSpaceOnUse"><stop stop-color="#7a4c00"/><stop offset="1" stop-color="#502b06"/></linearGradient><linearGradient id="c" x1="228.635" y1="741.603" x2="214.396" y2="676.41" gradientUnits="userSpaceOnUse"><stop stop-color="#936000"/><stop offset="1" stop-color="#d59409"/></linearGradient><linearGradient id="d" x1="347.547" y1="680.122" x2="341.136" y2="688.473" gradientUnits="userSpaceOnUse"><stop stop-color="#e8ba01"/><stop offset="1" stop-color="#cd9706"/></linearGradient><linearGradient id="e" x1="664.94" y1="408.829" x2="814.712" y2="422.068" gradientUnits="userSpaceOnUse"><stop stop-color="#df9400"/><stop offset="1" stop-color="#a2ac34"/></linearGradient><linearGradient id="f" x1="522.005" y1="407.36" x2="467.292" y2="373.659" gradientUnits="userSpaceOnUse"><stop stop-color="#ffffd0"/><stop offset="1" stop-color="#fff"/></linearGradient><linearGradient id="g" x1="851.862" y1="485.714" x2="628.486" y2="59.661" gradientUnits="userSpaceOnUse"><stop stop-color="#cdd6d9"/><stop offset="1" stop-color="#fff"/></linearGradient><linearGradient id="h" x1="590.221" y1="116.199" x2="588.656" y2="112.046" gradientUnits="userSpaceOnUse"><stop stop-color="#98a5af"/><stop offset="1" stop-color="#c3c8cc"/></linearGradient><linearGradient id="i" x1="508.097" y1="373.952" x2="371.123" y2="269.147" gradientUnits="userSpaceOnUse"><stop stop-color="#1a7688"/><stop offset="1" stop-color="#10d7db"/></linearGradient><linearGradient id="j" x1="634.417" y1="462.595" x2="535.066" y2="701.825" gradientUnits="userSpaceOnUse"><stop stop-color="#c3d5da"/><stop offset="1" stop-color="#fff"/></linearGradient><linearGradient id="k" x1="877.499" y1="654.171" x2="490.351" y2="496.058" gradientUnits="userSpaceOnUse"><stop stop-color="#939da9"/><stop offset="1" stop-color="#d6d8d8"/></linearGradient><linearGradient id="l" x1="805.01" y1="569.402" x2="452.57" y2="356.077" gradientUnits="userSpaceOnUse"><stop stop-color="#a3a4ac"/><stop offset="1" stop-color="#d1d2d4"/></linearGradient><linearGradient id="m" x1="464.242" y1="556.642" x2="457.421" y2="618.582" gradientUnits="userSpaceOnUse"><stop stop-color="#312d33"/><stop offset="1" stop-color="#555155"/></linearGradient><linearGradient id="n" x1="972.254" y1="504.261" x2="913.734" y2="482.451" gradientUnits="userSpaceOnUse"><stop stop-color="#959da6"/><stop offset="1" stop-color="#babfc6"/></linearGradient><linearGradient id="o" x1="913.409" y1="472.358" x2="927.328" y2="413.35" gradientUnits="userSpaceOnUse"><stop stop-color="#c5c8cb"/><stop offset="1" stop-color="#fff"/></linearGradient><linearGradient id="p" x1="942.4" y1="479.228" x2="987.775" y2="530.353" gradientUnits="userSpaceOnUse"><stop stop-color="#6a7183"/><stop offset="1" stop-color="#798a9b"/></linearGradient><linearGradient id="q" x1="538.258" y1="732.288" x2="557.127" y2="686.065" gradientUnits="userSpaceOnUse"><stop stop-color="#111011"/><stop offset="1" stop-color="#312c30"/></linearGradient><linearGradient id="r" x1="555.241" y1="692.658" x2="535.804" y2="727.309" gradientUnits="userSpaceOnUse"><stop stop-color="#a0a3ab"/><stop offset="1" stop-color="#dad9d8"/></linearGradient><linearGradient id="s" x1="836.781" y1="724.901" x2="808.271" y2="686.114" gradientUnits="userSpaceOnUse"><stop stop-color="#727783"/><stop offset="1" stop-color="#afb6bf"/></linearGradient><linearGradient id="t" x1="770.922" y1="730.953" x2="765.759" y2="690.542" gradientUnits="userSpaceOnUse"><stop stop-color="#81838f"/><stop offset="1" stop-color="#b4bbc1"/></linearGradient><linearGradient id="u" x1="833.61" y1="411.253" x2="814.818" y2="414.931" gradientUnits="userSpaceOnUse"><stop stop-color="#577177"/><stop offset="1" stop-color="#648694"/></linearGradient><clipPath id="a"><path fill="#fff" d="M0 0h1024v1024H0z"/></clipPath></defs></svg>